<svg id="client-symbol-defs" aria-hidden="true" style="position: absolute; width: 0; height: 0; overflow: hidden;" version="1.1" xmlns="http://www.w3.org/2000/svg" xmlns:xlink="http://www.w3.org/1999/xlink">
<defs>
<symbol id="client-sikkens" viewBox="0 0 256 256">
 <path d="M245.7,80.4c0,10.3,0,20.6,0,31c-78.5,0-156.9,0-235.4,0c0-10.3,0-20.6,0-31C88.7,80.4,167.2,80.4,245.7,80.4z"></path>
 <path d="M144.6,160.2c0,1.8,0,3.5,0,5.2c8.2,0,16.4,0,24.7,0c0,3.4,0,6.8,0,10.2c-11.4,0-22.8,0-34.2,0c0-13.7,0-27.3,0-41 c11.4,0,22.8,0,34.2,0c0,8.5,0,17,0,25.7C161.1,160.2,152.9,160.2,144.6,160.2z M144.6,144.8c0,1.7,0,3.4,0,5.1 c5.2,0,10.2,0,15.3,0c0-1.7,0-3.4,0-5.1C154.8,144.8,149.7,144.8,144.6,144.8z"></path>
 <path d="M10.3,160.2c0-8.6,0-17.1,0-25.7c11.4,0,22.8,0,34.3,0c0,3.4,0,6.7,0,10.2c-8.2,0-16.4,0-24.7,0c0,1.7,0,3.4,0,5.1 c8.2,0,16.5,0,24.7,0c0,8.6,0,17.1,0,25.7c-11.4,0-22.8,0-34.3,0c0-3.4,0-6.7,0-10.2c8.3,0,16.5,0,24.9,0c0-1.8,0-3.4,0-5.2 C26.9,160.2,18.6,160.2,10.3,160.2z"></path>
 <path d="M211.5,160.2c0-8.6,0-17.1,0-25.6c11.4,0,22.8,0,34.2,0c0,3.4,0,6.7,0,10.2c-8.2,0-16.4,0-24.7,0c0,1.7,0,3.4,0,5.1 c8.2,0,16.4,0,24.7,0c0,8.6,0,17.1,0,25.6c-11.4,0-22.7,0-34.1,0c0-3.4,0-6.7,0-10.2c8.3,0,16.5,0,24.8,0c0-1.8,0-3.4,0-5.2 C228,160.2,219.8,160.2,211.5,160.2z"></path>
 <path d="M100.2,121.6c3.4,0,6.7,0,10.2,0c0,9.4,0,18.9,0,28.4c1,0,1.8,0.1,2.7,0c0.3,0,0.6-0.4,0.7-0.7c2.8-4.6,5.7-9.2,8.5-13.9 c0.3-0.6,0.7-0.8,1.4-0.8c3.3,0,6.7,0,10.2,0c-0.1,0.3-0.2,0.5-0.3,0.7c-3.4,6.3-6.7,12.6-10.1,19c-0.4,0.7-0.4,1.3,0,2 c3.3,6.1,6.6,12.3,9.8,18.5c0.1,0.3,0.3,0.5,0.4,0.9c-0.4,0-0.6,0.1-0.9,0.1c-3.1,0-6.3,0-9.4,0c-0.6,0-0.9-0.2-1.2-0.7 c-2.8-4.6-5.6-9.2-8.3-13.8c-0.4-0.6-0.7-0.9-1.4-0.8c-0.6,0.1-1.2,0-1.9,0c0,5.1,0,10.1,0,15.2c-3.5,0-6.9,0-10.3,0 C100.2,157.6,100.2,139.6,100.2,121.6z"></path>
 <path d="M65.3,121.6c3.4,0,6.8,0,10.2,0c0,9.4,0,18.8,0,28.3c0.9,0,1.8,0.1,2.6,0c0.3,0,0.6-0.4,0.7-0.6c2.9-4.7,5.7-9.3,8.6-14 c0.3-0.5,0.6-0.7,1.2-0.7c3.2,0,6.3,0,9.5,0c0.2,0,0.5,0,0.9,0c-0.8,1.6-1.6,3.1-2.4,4.6c-2.7,5.1-5.4,10.2-8.2,15.3 c-0.3,0.5-0.3,0.9,0,1.4c3.4,6.3,6.7,12.5,10,18.8c0.1,0.2,0.2,0.5,0.4,0.8c-0.5,0-0.8,0-1.2,0c-3,0-6,0-9,0 c-0.6,0-0.9-0.2-1.3-0.7c-2.8-4.6-5.6-9.2-8.3-13.8c-0.4-0.6-0.7-0.9-1.4-0.8c-0.6,0.1-1.3,0-2,0c0,5.1,0,10.1,0,15.2 c-3.5,0-6.8,0-10.2,0C65.3,157.6,65.3,139.6,65.3,121.6z"></path>
 <path d="M174.6,134.6c10.5,0,21,0,31.6,0c0,13.7,0,27.3,0,41c-3.4,0-6.8,0-10.2,0c0-10.2,0-20.5,0-30.7c-3.7,0-7.4,0-11.2,0 c0,10.2,0,20.5,0,30.7c-3.4,0-6.8,0-10.2,0C174.6,161.9,174.6,148.3,174.6,134.6z"></path>
 <path d="M49.9,175.6c0-13.7,0-27.3,0-41c3.4,0,6.8,0,10.2,0c0,13.7,0,27.3,0,41C56.7,175.6,53.3,175.6,49.9,175.6z"></path>
 <path d="M60,131.8c-3.4,0-6.8,0-10.2,0c0-3.4,0-6.8,0-10.2c3.4,0,6.8,0,10.2,0C60,125.1,60,128.4,60,131.8z"></path>
</symbol>
<symbol id="client-72andsunny" viewBox="0 0 256 256">
 <path d="M61.9,62.4c1.9,0,3.2-1.3,3.2-3.2c0-1.9-1.4-3.3-3.3-3.3c-1.8,0.1-3.1,1.5-3.1,3.3 C58.7,61.1,60.1,62.4,61.9,62.4z M123,125.4c0-1.9-1.5-3.3-3.3-3.3c-1.8,0-3.2,1.5-3.2,3.3c0,1.8,1.4,3.2,3.3,3.2 C121.5,128.5,123,127.1,123,125.4z M56.8,67.5c0-1.9-1.3-3.2-3.2-3.2c-1.9,0-3.3,1.3-3.3,3.1c-0.1,1.9,1.4,3.3,3.3,3.3 C55.5,70.6,56.8,69.3,56.8,67.5z M125.8,201.4c0-1.8-1.6-3.3-3.3-3.3c-1.9,0-3.3,1.6-3.2,3.4c0.1,1.8,1.6,3.2,3.3,3.1 C124.4,204.7,125.8,203.1,125.8,201.4z M222.2,117c0-1.9-1.4-3.1-3.3-3.1s-3.2,1.3-3.2,3.2s1.6,3.3,3.3,3.3 C220.8,120.2,222.2,118.7,222.2,117z M157.4,208.5c0-1.8-1.4-3.2-3.3-3.2c-1.8,0-3.2,1.4-3.2,3.3s1.6,3.3,3.3,3.3 C156.1,211.8,157.4,210.3,157.4,208.5z M156.3,168c0.1-1.7-1.4-3.3-3.2-3.3c-1.8-0.1-3.3,1.3-3.3,3.1c-0.1,1.9,1.4,3.4,3.3,3.4 C154.7,171.2,156.2,169.7,156.3,168z M62,54.1c1.9,0,3.2-1.4,3.1-3.3c0-1.8-1.5-3.2-3.3-3.2c-1.9,0-3.3,1.5-3.2,3.4 C58.8,52.9,60.1,54.2,62,54.1z M139.5,117c0.1-1.9-1.3-3.2-3.2-3.3c-1.9,0-3.3,1.2-3.3,3.1c-0.1,1.8,1.5,3.4,3.3,3.4 C137.9,120.3,139.5,118.8,139.5,117z M131.3,108.7c0-1.7-1.6-3.2-3.3-3.2c-1.9,0-3.3,1.6-3.3,3.4c0.1,1.7,1.6,3.2,3.4,3.1 C129.8,112,131.3,110.4,131.3,108.7z M78.4,80.7c-1.9,0-3.2,1.4-3.3,3.2c0,1.9,1.3,3.3,3.1,3.3c1.9,0.1,3.4-1.5,3.3-3.3 C81.6,82.1,80.3,80.7,78.4,80.7z M139.5,108.8c0-1.8-1.4-3.3-3.2-3.3c-1.8,0-3.3,1.3-3.3,3.1c-0.1,1.8,1.5,3.4,3.3,3.4 C137.9,112.1,139.5,110.5,139.5,108.8z M123,92.3c0.1-1.8-1.3-3.2-3.1-3.2c-1.9,0-3.3,1.2-3.3,3c-0.1,1.9,1.4,3.3,3.3,3.4 C121.5,95.5,122.9,94.1,123,92.3z M128.1,89.1c-1.9,0-3.3,1.3-3.3,3.1c-0.1,1.9,1.5,3.3,3.3,3.3c1.8,0,3.3-1.5,3.3-3.3 C131.3,90.5,129.9,89.1,128.1,89.1z M172,174.3c-1.8,0-3.2,1.5-3.3,3.3c0,1.9,1.5,3.3,3.4,3.2c1.8-0.1,3.2-1.5,3.1-3.3 C175.3,175.7,173.8,174.3,172,174.3z M120.2,177.7c0-1.9-1.2-3.3-3.1-3.3c-1.8,0-3.3,1.3-3.3,3.1c-0.1,1.9,1.3,3.4,3.3,3.3 C118.9,180.8,120.2,179.5,120.2,177.7z M145.9,157.7c-1.9,0-3.3,1.2-3.3,3.1s1.2,3.3,3,3.3c1.9,0.1,3.3-1.3,3.4-3.2 C149.2,159.1,147.8,157.7,145.9,157.7z M170.5,159.7c0.1-1.8-1.4-3.2-3.2-3.3s-3.3,1.4-3.4,3.1c-0.1,1.8,1.5,3.3,3.3,3.3 C169.1,162.9,170.5,161.5,170.5,159.7z M78.3,54.1c1.9,0,3.3-1.3,3.3-3.1c0.1-1.9-1.4-3.3-3.3-3.3c-1.8,0-3.2,1.4-3.2,3.3 C75.2,52.8,76.6,54.1,78.3,54.1z M149.7,157c1.9,0.2,3.4-1.2,3.5-3.1c0.1-1.8-1.2-3.3-3.1-3.3s-3.3,1.2-3.3,3 C146.8,155.5,148,156.9,149.7,157z M151,146.3c-0.2,1.9,1.1,3.3,2.9,3.5c1.9,0.2,3.5-1.2,3.6-3s-1.2-3.3-2.9-3.4 C152.5,143.3,151.1,144.5,151,146.3z M48.5,75.8c0-1.9-1.2-3.3-3.1-3.3c-1.9-0.1-3.3,1.2-3.3,3c-0.1,1.9,1.3,3.4,3.2,3.4 C47.1,78.9,48.5,77.6,48.5,75.8z M191,116.8c-0.1,1.9,1.3,3.4,3.2,3.5c1.8,0,3.3-1.4,3.3-3.2c0.1-1.9-1.2-3.3-3.1-3.3 C192.4,113.8,191,115,191,116.8z M218.9,78.9c1.8,0,3.3-1.3,3.3-3.2c0.1-1.8-1.3-3.3-3.1-3.3c-1.9-0.1-3.4,1.3-3.3,3.3 C215.7,77.5,217,78.9,218.9,78.9z M180.9,125.3c0-1.8-1.5-3.2-3.3-3.2c-1.9,0-3.3,1.5-3.2,3.4c0.1,1.8,1.5,3.1,3.3,3.1 C179.5,128.5,180.9,127.1,180.9,125.3z M156,125.4c0-1.9-1.3-3.3-3.1-3.3c-1.9,0-3.3,1.5-3.3,3.3c0,1.8,1.5,3.2,3.3,3.2 C154.6,128.5,156,127.1,156,125.4z M150,204.7c1.8,0,3.3-1.3,3.3-3.2c0.1-1.9-1.5-3.4-3.3-3.4s-3.2,1.5-3.2,3.3 C146.9,203.3,148.2,204.7,150,204.7z M37,45.9c1.9,0,3.3-1.3,3.3-3.1c0-1.9-1.2-3.3-3.1-3.3c-1.8-0.1-3.4,1.5-3.3,3.3 C33.9,44.5,35.2,45.9,37,45.9z M45.4,39.4c-1.8,0-3.2,1.4-3.3,3.2C42,44.5,43.5,46,45.4,46c1.9,0,3.2-1.3,3.1-3.3 C48.5,40.8,47.2,39.4,45.4,39.4z M180.8,117.1c0-1.9-1.3-3.2-3.1-3.3c-1.9-0.1-3.3,1.2-3.3,3c-0.1,1.9,1.4,3.4,3.2,3.4 C179.3,120.3,180.8,118.9,180.8,117.1z M123,108.8c0-1.8-1.4-3.3-3.2-3.3c-1.8-0.1-3.3,1.5-3.3,3.3c0.1,1.7,1.6,3.3,3.3,3.2 C121.5,112,123,110.5,123,108.8z M139.5,141.9c0-1.8-1.3-3.3-3.1-3.3s-3.4,1.5-3.3,3.3c0,1.8,1.4,3.2,3.3,3.2 C138.1,145,139.4,143.7,139.5,141.9z M95,45.9c1.8,0,3.2-1.5,3.2-3.3s-1.4-3.2-3.2-3.3c-1.9,0-3.3,1.4-3.3,3.3S93.2,45.9,95,45.9z M136.2,128.5c1.8,0,3.3-1.3,3.3-3.2c0-1.8-1.3-3.3-3.1-3.3s-3.4,1.5-3.4,3.3C133,127.1,134.5,128.5,136.2,128.5z M219,128.5 c1.8,0,3.2-1.4,3.2-3.2s-1.4-3.3-3.2-3.3c-1.9,0-3.3,1.5-3.3,3.3C215.7,127.2,217.1,128.5,219,128.5z M118.5,143.4 c-1.9-0.1-3.3,1.2-3.3,3c-0.1,1.9,1.2,3.4,3.2,3.4c1.8,0,3.3-1.3,3.3-3.1C121.6,144.9,120.3,143.4,118.5,143.4z M83.5,75.7 c0,1.9,1.2,3.3,3.1,3.3c1.9,0.1,3.3-1.5,3.3-3.3c0-1.8-1.4-3.2-3.3-3.2C84.8,72.5,83.5,73.7,83.5,75.7z M136.3,146.8 c-1.7-0.1-3.3,1.4-3.3,3.1c-0.1,1.8,1.2,3.3,3.1,3.3c1.9,0.1,3.4-1.2,3.4-3.1C139.5,148.3,138.2,146.8,136.3,146.8z M136.2,216.5 c1.9,0,3.3-1.2,3.3-3c0.1-1.9-1.3-3.3-3.3-3.4c-1.7,0-3.3,1.5-3.3,3.2C133,215.1,134.4,216.5,136.2,216.5z M160.1,160.7 c-1.8,0-3.3,1.5-3.3,3.2s1.6,3.3,3.3,3.3c1.8,0.1,3.3-1.6,3.3-3.3C163.3,162,161.9,160.6,160.1,160.7z M81.7,92.1 c-0.1-1.8-1.4-3.1-3.3-3.1c-1.9,0-3.2,1.3-3.2,3.2s1.5,3.3,3.3,3.3S81.7,93.9,81.7,92.1z M108.7,174.3c-1.8,0-3.2,1.5-3.2,3.3 c0,1.9,1.5,3.3,3.4,3.2c1.9-0.1,3.1-1.5,3-3.3C111.9,175.6,110.5,174.3,108.7,174.3z M118.4,205.4c-1.8,0-3.2,1.4-3.2,3.2 c0,1.9,1.5,3.3,3.3,3.3c1.8-0.1,3.2-1.6,3.1-3.3C121.6,206.8,120.1,205.4,118.4,205.4z M103.1,89.1c-1.8,0-3.2,1.4-3.2,3.2 s1.5,3.2,3.3,3.2c1.7,0,3.3-1.5,3.3-3.2C106.5,90.5,105,89,103.1,89.1z M48.5,83.8c-0.1-1.8-1.5-3.2-3.3-3.1 c-1.8,0.1-3.2,1.5-3.2,3.3c0,1.9,1.6,3.3,3.4,3.3C47.3,87.2,48.6,85.8,48.5,83.8z M170.5,195.5c0-1.8-1.4-3.2-3.3-3.2 c-1.8,0-3.3,1.4-3.3,3.1c-0.1,1.8,1.6,3.4,3.3,3.4C169.1,198.8,170.5,197.2,170.5,195.5z M86.6,39.4c-1.9,0-3.1,1.4-3.1,3.3 c0,1.9,1.3,3.2,3.2,3.2s3.3-1.5,3.3-3.3C89.8,40.8,88.4,39.4,86.6,39.4z M139.5,196.8c0-1.8-1.4-3.3-3.2-3.3 c-1.8,0-3.3,1.6-3.3,3.4c0.1,1.8,1.6,3.2,3.3,3.1C138.2,200.1,139.5,198.7,139.5,196.8z M139.5,205.4c0.2-1.8-1.2-3.3-2.9-3.5 s-3.5,1.2-3.6,3.1c-0.1,1.8,1.2,3.3,3.1,3.3C137.9,208.4,139.3,207.2,139.5,205.4z M152.8,89.1c-1.9,0-3.3,1.2-3.3,3 s1.5,3.4,3.3,3.4s3.2-1.4,3.2-3.2C156,90.4,154.7,89.1,152.8,89.1z M114.7,117c0-1.8-1.4-3.2-3.3-3.2c-1.9,0-3.2,1.2-3.2,3.2 c0,1.9,1.5,3.4,3.3,3.3C113.3,120.2,114.8,118.7,114.7,117z M210.6,89.1c-1.9,0-3.2,1.2-3.2,3.2c0,1.9,1.3,3.3,3.1,3.3 c1.9,0,3.3-1.5,3.3-3.3C213.9,90.3,212.5,89,210.6,89.1z M197.3,108.8c0-1.9-1.5-3.3-3.3-3.3c-1.8,0.1-3.1,1.5-3.1,3.3 c0,1.8,1.5,3.3,3.3,3.2C195.8,112,197.3,110.5,197.3,108.8z M86.7,89.1c-1.9,0-3.2,1.2-3.3,3c-0.1,1.9,1.3,3.4,3.2,3.3 c1.8,0,3.2-1.5,3.3-3.3C90,90.4,88.7,89.1,86.7,89.1z M95,89.1c-1.9,0-3.2,1.2-3.3,3c-0.1,1.9,1.3,3.3,3.3,3.3 c1.8,0,3.2-1.5,3.2-3.3C98.2,90.4,96.9,89.1,95,89.1z M103.6,177.6c0-1.9-1.3-3.2-3.2-3.2c-1.8,0-3.3,1.4-3.3,3.2 c-0.1,1.9,1.5,3.3,3.3,3.3C102.4,180.8,103.6,179.4,103.6,177.6z M202.4,89.1c-1.9,0-3.2,1.2-3.2,3.2c0,1.9,1.3,3.3,3.1,3.3 c1.9,0,3.3-1.5,3.3-3.3C205.6,90.3,204.2,89,202.4,89.1z M152.8,105.5c-1.8,0-3.3,1.4-3.3,3.2c-0.1,1.8,1.5,3.4,3.3,3.3 c1.7,0,3.2-1.5,3.2-3.3C156,107,154.6,105.5,152.8,105.5z M152.9,190.5c1.7,0,3.3-1.5,3.3-3.2c0.1-1.7-1.4-3.3-3.2-3.3 c-1.9-0.1-3.4,1.4-3.3,3.3C149.7,189.1,151.2,190.5,152.9,190.5z M115.6,191.5c0-1.9-1.2-3.3-3.1-3.3c-1.9-0.1-3.3,1.3-3.3,3.2 c0,1.8,1.4,3.3,3.2,3.3C114.2,194.7,115.6,193.3,115.6,191.5z M218.9,103.7c1.8,0,3.2-1.4,3.3-3.2c0-1.9-1.5-3.3-3.3-3.3 c-1.8,0.1-3.2,1.5-3.2,3.3C215.7,102.4,217.1,103.8,218.9,103.7z M131.3,125.4c0.1-1.7-1.4-3.3-3.2-3.3c-1.9-0.1-3.4,1.4-3.4,3.3 c0,1.8,1.4,3.2,3.3,3.3C129.7,128.5,131.3,127.1,131.3,125.4z M122.5,157c1.8,0,3.3-1.4,3.3-3.2c0.1-1.8-1.3-3.3-3.1-3.3 c-1.9-0.1-3.3,1.3-3.3,3.3C119.3,155.6,120.6,156.9,122.5,157z M152.8,113.8c-1.8,0-3.3,1.4-3.3,3.2c0,1.7,1.5,3.3,3.2,3.3 c1.9,0.1,3.3-1.5,3.3-3.3C156,115.2,154.6,113.8,152.8,113.8z M160.2,194.6c1.8-0.1,3.2-1.6,3.2-3.3c0-1.9-1.6-3.3-3.4-3.1 c-1.8,0.1-3.2,1.6-3.1,3.3C157,193.3,158.4,194.7,160.2,194.6z M65.1,42.7c0-1.8-1.4-3.2-3.2-3.3c-1.9,0-3.3,1.5-3.3,3.3 c0.1,1.9,1.4,3.2,3.3,3.1C63.7,45.9,65.1,44.5,65.1,42.7z M222.2,83.9c0-1.7-1.6-3.2-3.3-3.2c-1.9,0-3.2,1.4-3.2,3.2 c0,1.9,1.4,3.3,3.3,3.3C220.8,87.2,222.2,85.7,222.2,83.9z M207.5,125.3c0,1.9,1.2,3.3,3.1,3.3c1.9,0.1,3.4-1.4,3.3-3.3 c0-1.7-1.5-3.2-3.3-3.2C208.9,122,207.5,123.4,207.5,125.3z M222.2,108.9c0.1-1.7-1.3-3.3-3.1-3.4c-1.8-0.1-3.3,1.2-3.4,3 c-0.1,1.9,1.3,3.5,3.2,3.5C220.5,112.1,222.1,110.6,222.2,108.9z M139.5,158.4c0.1-1.9-1.2-3.3-3.1-3.3c-1.9-0.1-3.4,1.4-3.4,3.3 c0,1.7,1.5,3.2,3.2,3.3C138,161.6,139.4,160.3,139.5,158.4z M105.3,162.9c1.8,0,3.2-1.3,3.3-3.2c0.1-1.8-1.3-3.3-3.1-3.3 c-1.9-0.1-3.3,1.4-3.3,3.3C102,161.5,103.5,162.9,105.3,162.9z M139.5,100.5c0-1.8-1.4-3.2-3.2-3.2c-1.9,0-3.3,1.5-3.3,3.3 c0.1,1.8,1.6,3.2,3.3,3.1C138.1,103.7,139.5,102.3,139.5,100.5z M122.8,168c0-1.9-1.5-3.4-3.3-3.3c-1.7,0-3.2,1.6-3.2,3.3 c0,1.8,1.5,3.3,3.2,3.3C121.3,171.2,122.7,169.8,122.8,168z M180.8,108.7c0-1.8-1.4-3.2-3.3-3.2c-1.8,0-3.2,1.4-3.3,3.2 c0,1.9,1.6,3.4,3.3,3.3C179.5,112,180.9,110.5,180.8,108.7z M167,177.7c0-1.9-1.3-3.3-3.1-3.3c-1.9,0-3.3,1.5-3.3,3.3 c0,1.8,1.5,3.2,3.3,3.2C165.7,180.8,167,179.4,167,177.7z M172.6,92.3c0-1.9-1.2-3.2-3.1-3.2s-3.3,1.2-3.3,3 c-0.1,1.9,1.5,3.4,3.3,3.4C171.2,95.5,172.5,94.1,172.6,92.3z M161,89.1c-1.9,0-3.2,1.3-3.2,3.2c0,1.8,1.4,3.3,3.2,3.3 c1.9,0,3.3-1.5,3.3-3.3C164.2,90.3,162.9,89,161,89.1z M205.6,125.2c-0.1-1.8-1.6-3.2-3.3-3.2c-1.9,0-3.3,1.5-3.2,3.4 c0.1,1.9,1.5,3.1,3.3,3C204.3,128.5,205.7,127,205.6,125.2z M122.8,187.3c0-1.9-1.2-3.2-3.1-3.3c-1.9-0.1-3.3,1.3-3.3,3.3 c0,1.8,1.5,3.3,3.2,3.3C121.3,190.5,122.7,189.1,122.8,187.3z M94.9,70.7c1.8,0,3.3-1.3,3.3-3.1c0.1-1.9-1.3-3.3-3.3-3.3 c-1.9,0-3.2,1.3-3.2,3.2C91.8,69.3,93.1,70.6,94.9,70.7z M45.3,89.1c-1.9,0-3.2,1.3-3.2,3.2c0,1.8,1.5,3.2,3.3,3.2 c1.9,0,3.3-1.5,3.2-3.4C48.5,90.2,47.2,89,45.3,89.1z M53.6,45.9c1.9,0,3.3-1.2,3.3-3.1c0.1-1.8-1.3-3.3-3-3.3 c-1.9-0.1-3.4,1.4-3.4,3.2C50.4,44.5,51.7,45.9,53.6,45.9z M156,100.5c0-1.9-1.3-3.2-3.2-3.2c-1.8,0-3.3,1.3-3.3,3.1 c-0.1,1.8,1.5,3.3,3.3,3.3C154.6,103.7,156,102.3,156,100.5z M123.4,160.9c0,1.9,1.2,3.3,3.1,3.3c1.9,0.1,3.4-1.5,3.3-3.3 c0-1.8-1.5-3.2-3.3-3.2C124.8,157.7,123.5,159,123.4,160.9z M180.8,100.6c0.1-1.9-1.2-3.3-3.1-3.3c-1.9-0.1-3.3,1.2-3.3,3 c-0.1,1.9,1.3,3.4,3.2,3.4C179.3,103.8,180.8,102.4,180.8,100.6z M145.9,197.5c1.9,0,3.3-1.2,3.3-3.1s-1.5-3.4-3.3-3.3 c-1.8,0.1-3.1,1.5-3.1,3.3C142.7,196.2,144,197.5,145.9,197.5z M108.5,195.5c0-1.9-1.3-3.2-3.2-3.2s-3.3,1.2-3.3,3.1 s1.5,3.4,3.3,3.3C107.1,198.8,108.5,197.2,108.5,195.5z M155.4,180.8c1.9,0,3.3-1.2,3.3-3.1c0.1-1.9-1.3-3.4-3.2-3.4 c-1.8,0-3.2,1.4-3.3,3.2C152.3,179.4,153.6,180.8,155.4,180.8z M219,89.1c-1.9,0-3.3,1.2-3.3,3.1s1.3,3.3,3.1,3.3 c1.9,0.1,3.3-1.4,3.4-3.3C222.2,90.4,220.8,89.1,219,89.1z M115.6,163.8c0-1.9-1.3-3.2-3.2-3.2s-3.3,1.3-3.3,3.1 c0,1.9,1.5,3.4,3.3,3.3C114.2,167.1,115.6,165.6,115.6,163.8z M103.3,54.1c1.8,0,3.3-1.5,3.3-3.2c0-1.8-1.6-3.3-3.4-3.3 s-3.2,1.6-3.1,3.3C100,52.8,101.5,54.2,103.3,54.1z M106.5,59.1c-0.1-1.7-1.6-3.2-3.3-3.2c-1.9,0-3.3,1.6-3.2,3.4 c0.1,1.8,1.6,3.1,3.3,3C105.1,62.3,106.5,60.9,106.5,59.1z M197.3,100.5c0-1.9-1.2-3.2-3.1-3.3c-1.9-0.1-3.3,1.3-3.3,3.3 c0,1.8,1.4,3.2,3.3,3.2C195.9,103.8,197.3,102.4,197.3,100.5z M126.7,197.5c1.9,0,3.2-1.4,3.2-3.2s-1.5-3.3-3.3-3.3 c-1.9,0-3.3,1.5-3.2,3.3C123.5,196.3,124.8,197.5,126.7,197.5z"></path>
 <path d="M61.9,62.4c-1.9,0-3.2-1.3-3.3-3.2c0-1.9,1.3-3.3,3.1-3.3c1.9-0.1,3.3,1.4,3.3,3.3C65.1,61.1,63.7,62.4,61.9,62.4z"></path>
 <path d="M123,125.4c0,1.8-1.5,3.2-3.3,3.1c-1.9-0.1-3.2-1.4-3.3-3.2c0-1.8,1.4-3.3,3.2-3.3C121.6,122,123,123.5,123,125.4z"></path>
 <path d="M56.8,67.5c0,1.9-1.4,3.2-3.2,3.2c-1.9,0-3.3-1.5-3.3-3.3c0.1-1.8,1.5-3.1,3.3-3.1C55.5,64.3,56.8,65.6,56.8,67.5z"></path>
 <path d="M125.8,201.4c0,1.8-1.4,3.3-3.2,3.3c-1.8,0.1-3.3-1.3-3.3-3.1c-0.1-1.9,1.4-3.5,3.2-3.4 C124.2,198.2,125.8,199.6,125.8,201.4z"></path>
 <path d="M222.2,117c0,1.8-1.4,3.3-3.1,3.3c-1.9,0.1-3.3-1.4-3.3-3.3c0-1.9,1.4-3.2,3.2-3.2C220.8,113.9,222.2,115.1,222.2,117z"></path>
 <path d="M157.4,208.5c0,1.9-1.3,3.3-3.1,3.3c-1.9,0.1-3.3-1.4-3.3-3.3s1.4-3.2,3.2-3.3C156,205.4,157.3,206.7,157.4,208.5z"></path>
 <path d="M156.3,168c-0.1,1.7-1.6,3.2-3.3,3.2c-1.9,0-3.3-1.6-3.3-3.4c0.1-1.8,1.6-3.2,3.3-3.1C154.8,164.8,156.3,166.3,156.3,168z"></path>
 <path d="M62,54.1c-1.9,0.1-3.3-1.2-3.3-3c-0.1-1.9,1.3-3.4,3.2-3.4c1.8,0,3.2,1.4,3.3,3.2C65.1,52.7,63.8,54.1,62,54.1z"></path>
 <path d="M139.5,117c-0.1,1.8-1.6,3.3-3.3,3.3c-1.8,0-3.3-1.6-3.3-3.4c0.1-1.8,1.5-3.1,3.3-3.1C138.2,113.9,139.6,115.3,139.5,117z"></path>
 <path d="M131.3,108.7c0,1.7-1.5,3.3-3.2,3.3c-1.7,0.1-3.3-1.4-3.4-3.1c-0.1-1.9,1.4-3.4,3.3-3.4C129.7,105.5,131.3,107,131.3,108.7 z"></path>
 <path d="M78.4,80.7c1.9,0,3.2,1.3,3.3,3.2c0,1.9-1.5,3.3-3.3,3.3c-1.8-0.1-3.2-1.5-3.1-3.3C75.2,82.1,76.6,80.7,78.4,80.7z"></path>
 <path d="M139.5,108.8c0,1.7-1.6,3.3-3.3,3.3c-1.8,0-3.3-1.6-3.3-3.4c0.1-1.8,1.6-3.1,3.3-3.1S139.6,107,139.5,108.8z"></path>
 <path d="M123,92.3c-0.1,1.8-1.5,3.2-3.3,3.2c-1.9,0-3.3-1.6-3.3-3.4s1.4-3,3.3-3C121.6,89.1,123,90.5,123,92.3z"></path>
 <path d="M128.1,89.1c1.8,0,3.3,1.5,3.3,3.2c0,1.8-1.5,3.2-3.3,3.3c-1.9,0-3.3-1.6-3.3-3.3C124.8,90.3,126.2,89,128.1,89.1z"></path>
 <path d="M172,174.3c1.8,0,3.3,1.3,3.3,3.2c0.1,1.8-1.3,3.3-3.1,3.3c-1.9,0.1-3.4-1.3-3.4-3.2C168.8,175.8,170.2,174.3,172,174.3z"></path>
 <path d="M120.2,177.7c0,1.9-1.3,3.2-3.2,3.2s-3.3-1.5-3.3-3.3c0.1-1.8,1.5-3.2,3.3-3.1C118.9,174.4,120.2,175.7,120.2,177.7z"></path>
 <path d="M145.9,157.7c1.9,0,3.2,1.4,3.2,3.2c0,1.9-1.6,3.3-3.4,3.2c-1.9-0.1-3.1-1.5-3-3.3C142.8,159,144.1,157.7,145.9,157.7z"></path>
 <path d="M170.5,159.7c-0.1,1.8-1.5,3.2-3.3,3.2c-1.9,0-3.4-1.6-3.3-3.3c0.1-1.7,1.6-3.1,3.4-3.1C169.1,156.6,170.6,158,170.5,159.7 z"></path>
 <path d="M78.3,54.1c-1.9,0-3.2-1.4-3.2-3.2c0-1.8,1.4-3.2,3.2-3.3c1.9,0,3.3,1.5,3.3,3.3C81.6,52.9,80.2,54.2,78.3,54.1z"></path>
 <path d="M149.7,157c-1.8-0.1-3-1.6-2.9-3.4c0.1-1.9,1.5-3.1,3.3-3c1.8,0.1,3.2,1.6,3.1,3.3C153.2,155.8,151.7,157.1,149.7,157z"></path>
 <path d="M151,146.3c0.2-1.8,1.6-3,3.5-2.9c1.8,0.1,3.1,1.6,2.9,3.4c-0.1,1.9-1.6,3.2-3.6,3C152,149.6,150.8,148.2,151,146.3z"></path>
 <path d="M48.5,75.8c0,1.9-1.4,3.2-3.3,3.2c-1.9,0-3.3-1.6-3.2-3.4c0.1-1.8,1.6-3.1,3.3-3C47.3,72.6,48.6,73.9,48.5,75.8z"></path>
 <path d="M191,116.8c0.1-1.9,1.5-3.1,3.3-3c1.9,0.1,3.1,1.5,3.1,3.3c-0.1,1.8-1.5,3.2-3.3,3.2C192.3,120.3,190.9,118.8,191,116.8z"></path>
 <path d="M218.9,78.9c-1.8,0-3.2-1.4-3.2-3.2c0-1.9,1.5-3.3,3.3-3.3c1.8,0.1,3.2,1.6,3.1,3.3S220.7,78.9,218.9,78.9z"></path>
 <path d="M180.9,125.3c0,1.8-1.3,3.2-3.1,3.3c-1.9,0.1-3.3-1.2-3.3-3.1c-0.1-1.9,1.3-3.4,3.2-3.4C179.4,122,180.8,123.5,180.9,125.3 z"></path>
 <path d="M156,125.4c0,1.9-1.4,3.2-3.2,3.2s-3.3-1.4-3.3-3.2c0-1.9,1.5-3.3,3.3-3.3C154.6,122,156,123.5,156,125.4z"></path>
 <path d="M150,204.7c-1.8,0-3.1-1.4-3.1-3.3c0-1.8,1.4-3.3,3.2-3.3s3.3,1.6,3.3,3.4C153.2,203.4,151.8,204.7,150,204.7z"></path>
 <path d="M37,45.9c-1.9,0-3.2-1.4-3.2-3.2s1.6-3.3,3.3-3.3c1.9,0.1,3.1,1.5,3.1,3.3C40.3,44.6,38.9,45.9,37,45.9z"></path>
 <path d="M45.4,39.4c1.8,0,3.2,1.4,3.2,3.3c0,1.9-1.3,3.2-3.1,3.3c-1.9,0-3.3-1.4-3.3-3.3C42.2,40.8,43.6,39.4,45.4,39.4z"></path>
 <path d="M180.8,117.1c0,1.8-1.5,3.2-3.3,3.2c-1.9,0-3.3-1.6-3.2-3.4c0.1-1.8,1.5-3.1,3.3-3C179.5,113.9,180.9,115.3,180.8,117.1z"></path>
 <path d="M123,108.8c0,1.7-1.5,3.3-3.2,3.3s-3.3-1.5-3.3-3.2c-0.1-1.9,1.5-3.4,3.3-3.3C121.6,105.6,123,107,123,108.8z"></path>
 <path d="M139.5,141.9c0,1.9-1.4,3.2-3.3,3.2c-1.9,0-3.3-1.4-3.3-3.2s1.6-3.3,3.3-3.3C138.2,138.6,139.5,140,139.5,141.9z"></path>
 <path d="M95,45.9c-1.9,0-3.2-1.2-3.3-3.1c-0.1-1.9,1.3-3.3,3.3-3.3c1.8,0,3.2,1.5,3.2,3.3S96.8,45.9,95,45.9z"></path>
 <path d="M136.2,128.5c-1.8,0-3.3-1.4-3.3-3.2s1.6-3.3,3.4-3.3c1.8,0.1,3.2,1.6,3.1,3.3C139.5,127.1,138,128.5,136.2,128.5z"></path>
 <path d="M219,128.5c-1.9,0-3.3-1.3-3.3-3.1c0-1.9,1.4-3.3,3.3-3.3c1.8,0,3.2,1.5,3.2,3.3C222.2,127.1,220.8,128.5,219,128.5z"></path>
 <path d="M118.5,143.4c1.8,0.1,3.2,1.5,3.1,3.3c-0.1,1.8-1.5,3.1-3.3,3.1c-1.9,0-3.3-1.5-3.2-3.4 C115.3,144.6,116.6,143.4,118.5,143.4z"></path>
 <path d="M83.5,75.7c0-1.9,1.2-3.2,3.2-3.2c1.9,0,3.3,1.3,3.3,3.2s-1.5,3.3-3.3,3.3C84.8,78.9,83.5,77.6,83.5,75.7z"></path>
 <path d="M136.3,146.8c1.8,0.1,3.2,1.5,3.1,3.3c0,1.9-1.5,3.3-3.4,3.1c-1.8-0.1-3.2-1.6-3.1-3.3 C133.1,148.2,134.6,146.8,136.3,146.8z"></path>
 <path d="M136.2,216.5c-1.9,0-3.3-1.5-3.2-3.2c0.1-1.8,1.6-3.2,3.3-3.2c1.9,0,3.3,1.5,3.3,3.4C139.4,215.3,138,216.6,136.2,216.5z"></path>
 <path d="M160.1,160.7c1.9,0,3.3,1.3,3.3,3.1c0.1,1.8-1.6,3.4-3.3,3.3c-1.7-0.1-3.3-1.6-3.3-3.3 C156.8,162.1,158.3,160.7,160.1,160.7z"></path>
 <path d="M81.7,92.1c0.1,1.8-1.3,3.3-3.1,3.3c-1.9,0.1-3.3-1.3-3.3-3.3c0-1.9,1.3-3.2,3.2-3.2C80.3,89,81.6,90.3,81.7,92.1z"></path>
 <path d="M108.7,174.3c1.8,0,3.2,1.3,3.3,3.1c0.1,1.9-1.2,3.3-3,3.3c-1.9,0.1-3.4-1.3-3.4-3.2C105.4,175.9,106.9,174.4,108.7,174.3z "></path>
 <path d="M118.4,205.4c1.8,0,3.3,1.4,3.3,3.2c0.1,1.8-1.4,3.3-3.1,3.3c-1.9,0.1-3.3-1.4-3.3-3.3 C115.1,206.8,116.5,205.4,118.4,205.4z"></path>
 <path d="M103.1,89.1c1.9,0,3.4,1.4,3.3,3.3c0,1.7-1.6,3.2-3.3,3.2c-1.8,0-3.2-1.5-3.3-3.2C99.9,90.5,101.3,89.1,103.1,89.1z"></path>
 <path d="M48.5,83.8c0.1,1.9-1.2,3.3-3,3.3c-1.9,0.1-3.4-1.4-3.4-3.3c0-1.8,1.3-3.2,3.2-3.3C47.1,80.7,48.5,82,48.5,83.8z"></path>
 <path d="M170.5,195.5c0,1.7-1.5,3.3-3.3,3.3s-3.4-1.6-3.3-3.4c0.1-1.7,1.6-3.1,3.3-3.1C169.2,192.3,170.5,193.6,170.5,195.5z"></path>
 <path d="M86.6,39.4c1.8,0,3.3,1.3,3.3,3.1c0.1,1.9-1.3,3.3-3.3,3.3c-1.9,0-3.2-1.3-3.2-3.2C83.5,40.8,84.8,39.4,86.6,39.4z"></path>
 <path d="M139.5,196.8c0,1.9-1.3,3.2-3.2,3.3c-1.8,0-3.3-1.4-3.3-3.1c-0.1-1.8,1.6-3.4,3.3-3.4C138,193.6,139.5,195,139.5,196.8z"></path>
 <path d="M139.5,205.4c-0.2,1.9-1.6,3-3.4,2.9c-1.8-0.1-3.2-1.6-3.1-3.3c0.1-1.8,1.8-3.3,3.6-3.1C138.3,202,139.7,203.6,139.5,205.4 z"></path>
 <path d="M152.8,89.1c1.9,0,3.2,1.3,3.1,3.2c0,1.8-1.4,3.2-3.2,3.2s-3.3-1.6-3.3-3.4C149.6,90.3,151,89,152.8,89.1z"></path>
 <path d="M114.7,117c0,1.7-1.5,3.3-3.2,3.3c-1.9,0.1-3.3-1.4-3.3-3.3c0-1.9,1.3-3.2,3.2-3.2C113.3,113.9,114.7,115.2,114.7,117z"></path>
 <path d="M210.6,89.1c1.9,0,3.3,1.2,3.3,3.1c0.1,1.9-1.5,3.3-3.3,3.3c-1.8,0-3.1-1.4-3.1-3.3C207.5,90.3,208.7,89.1,210.6,89.1z"></path>
 <path d="M197.3,108.8c0,1.8-1.5,3.3-3.2,3.3c-1.7,0-3.2-1.4-3.3-3.2c0-1.8,1.3-3.3,3.1-3.3C195.8,105.5,197.3,106.9,197.3,108.8z"></path>
 <path d="M86.7,89.1c1.9,0,3.2,1.3,3.2,3.2c0,1.8-1.5,3.2-3.3,3.3c-1.9,0-3.3-1.4-3.2-3.3C83.5,90.3,84.8,89,86.7,89.1z"></path>
 <path d="M95,89.1c1.9,0,3.2,1.3,3.2,3.2c0,1.8-1.5,3.3-3.2,3.3c-1.9,0-3.3-1.5-3.3-3.3C91.8,90.3,93.1,89,95,89.1z"></path>
 <path d="M103.6,177.6c0,1.9-1.2,3.2-3.1,3.3c-1.9,0-3.4-1.5-3.3-3.3c0-1.7,1.6-3.2,3.3-3.2C102.3,174.3,103.6,175.7,103.6,177.6z"></path>
 <path d="M202.4,89.1c1.9,0,3.3,1.3,3.3,3.1c0.1,1.9-1.5,3.3-3.3,3.3c-1.8,0-3.2-1.4-3.1-3.3C199.2,90.3,200.4,89.1,202.4,89.1z"></path>
 <path d="M152.8,105.5c1.8,0,3.2,1.5,3.2,3.3s-1.4,3.3-3.2,3.3s-3.3-1.6-3.3-3.3C149.6,107,151.1,105.5,152.8,105.5z"></path>
 <path d="M152.9,190.5c-1.8,0-3.2-1.5-3.3-3.3c0-1.9,1.5-3.3,3.3-3.3c1.8,0.1,3.3,1.6,3.2,3.3C156.2,189,154.6,190.5,152.9,190.5z"></path>
 <path d="M115.6,191.5c0,1.8-1.5,3.2-3.3,3.2c-1.8,0-3.2-1.5-3.2-3.3c0-1.9,1.4-3.3,3.3-3.2C114.4,188.2,115.7,189.5,115.6,191.5z"></path>
 <path d="M218.9,103.7c-1.8,0-3.2-1.4-3.3-3.2c0-1.8,1.3-3.2,3.2-3.3c1.9-0.1,3.3,1.4,3.3,3.3C222.2,102.3,220.7,103.7,218.9,103.7z "></path>
 <path d="M131.3,125.4c-0.1,1.7-1.6,3.2-3.3,3.1c-1.8,0-3.3-1.5-3.3-3.3c0-1.9,1.6-3.3,3.4-3.3C129.9,122.1,131.3,123.6,131.3,125.4 z"></path>
 <path d="M122.5,157c-1.9,0-3.2-1.3-3.2-3.2c0-1.9,1.4-3.3,3.3-3.3c1.8,0.1,3.2,1.6,3.1,3.3C125.7,155.6,124.3,157,122.5,157z"></path>
 <path d="M152.8,113.8c1.9,0,3.2,1.3,3.2,3.2s-1.5,3.4-3.3,3.3c-1.7-0.1-3.2-1.6-3.2-3.3C149.6,115.2,151,113.8,152.8,113.8z"></path>
 <path d="M160.2,194.6c-1.8,0.1-3.3-1.3-3.3-3.1c-0.1-1.7,1.3-3.3,3.1-3.3c1.9-0.1,3.4,1.2,3.4,3.1 C163.4,193.1,162,194.6,160.2,194.6z"></path>
 <path d="M65.1,42.7c0,1.9-1.3,3.2-3.2,3.3c-1.9,0-3.2-1.2-3.3-3.1c-0.1-1.9,1.4-3.3,3.3-3.3C63.7,39.4,65.1,40.8,65.1,42.7z"></path>
 <path d="M222.2,83.9c0,1.8-1.4,3.3-3.1,3.3c-1.9,0.1-3.3-1.3-3.3-3.3c0-1.9,1.3-3.2,3.2-3.2C220.7,80.7,222.2,82.2,222.2,83.9z"></path>
 <path d="M207.5,125.3c0-1.8,1.4-3.3,3.2-3.2c1.8,0,3.3,1.5,3.3,3.2c0,1.9-1.5,3.3-3.3,3.3C208.7,128.5,207.5,127.1,207.5,125.3z"></path>
 <path d="M222.2,108.9c-0.1,1.7-1.6,3.2-3.3,3.2c-1.8,0-3.3-1.6-3.2-3.5c0.1-1.8,1.6-3.1,3.4-3C220.8,105.6,222.2,107.1,222.2,108.9 z"></path>
 <path d="M139.5,158.4c-0.1,1.8-1.5,3.2-3.3,3.1c-1.8,0-3.3-1.5-3.2-3.3c0-1.8,1.6-3.3,3.4-3.3C138.2,155.2,139.5,156.6,139.5,158.4 z"></path>
 <path d="M105.3,162.9c-1.8,0-3.2-1.4-3.2-3.2c0-1.9,1.4-3.3,3.3-3.3c1.8,0,3.2,1.5,3.1,3.3C108.5,161.6,107.1,162.9,105.3,162.9z"></path>
 <path d="M139.5,100.5c0,1.8-1.4,3.2-3.2,3.3c-1.8,0-3.3-1.4-3.3-3.1c-0.1-1.9,1.4-3.3,3.3-3.3C138.1,97.3,139.5,98.7,139.5,100.5z"></path>
 <path d="M122.8,168c0,1.8-1.5,3.3-3.3,3.2c-1.8,0-3.2-1.5-3.2-3.3c0-1.8,1.4-3.3,3.2-3.3C121.3,164.6,122.8,166.2,122.8,168z"></path>
 <path d="M180.8,108.7c0,1.8-1.4,3.3-3.1,3.3c-1.8,0.1-3.3-1.5-3.3-3.3c0-1.8,1.4-3.2,3.3-3.2C179.4,105.5,180.8,106.9,180.8,108.7z "></path>
 <path d="M167,177.7c0,1.9-1.3,3.2-3.2,3.2c-1.8,0-3.3-1.4-3.3-3.2c0-1.9,1.5-3.3,3.3-3.3C165.7,174.4,167,175.7,167,177.7z"></path>
 <path d="M172.6,92.3c0,1.9-1.4,3.3-3.2,3.3c-1.9,0-3.3-1.6-3.3-3.4c0.1-1.9,1.4-3.1,3.3-3C171.3,89.1,172.6,90.3,172.6,92.3z"></path>
 <path d="M161,89.1c1.9,0,3.2,1.2,3.3,3.1c0,1.9-1.4,3.3-3.3,3.3c-1.8,0-3.2-1.5-3.2-3.3C157.8,90.3,159.1,89.1,161,89.1z"></path>
 <path d="M205.6,125.2c0.1,1.8-1.3,3.2-3.2,3.3c-1.9,0.1-3.3-1.2-3.3-3c-0.1-1.9,1.3-3.4,3.2-3.4S205.6,123.4,205.6,125.2z"></path>
 <path d="M122.8,187.3c0,1.8-1.5,3.2-3.3,3.2c-1.7,0-3.2-1.5-3.2-3.3c0-1.9,1.4-3.3,3.3-3.3C121.6,184.1,122.8,185.4,122.8,187.3z"></path>
 <path d="M94.9,70.7c-1.9,0-3.1-1.4-3.1-3.3s1.3-3.2,3.2-3.2c1.9,0,3.3,1.5,3.3,3.3C98.1,69.3,96.7,70.7,94.9,70.7z"></path>
 <path d="M45.3,89.1c1.9,0,3.3,1.2,3.3,3c0.1,1.9-1.4,3.4-3.2,3.4s-3.2-1.5-3.3-3.2C42.1,90.4,43.4,89.1,45.3,89.1z"></path>
 <path d="M53.6,45.9c-1.8,0-3.2-1.4-3.2-3.3c0-1.9,1.6-3.3,3.4-3.3c1.7,0.1,3.1,1.6,3,3.3C56.8,44.6,55.4,46,53.6,45.9z"></path>
 <path d="M156,100.5c0,1.8-1.3,3.2-3.1,3.3c-1.9,0.1-3.3-1.5-3.3-3.3c0.1-1.8,1.5-3.1,3.3-3.1C154.6,97.3,156,98.7,156,100.5z"></path>
 <path d="M123.4,160.9c0-1.9,1.2-3.2,3.2-3.2c1.8,0,3.3,1.4,3.3,3.2s-1.6,3.3-3.3,3.3C124.7,164.1,123.4,162.8,123.4,160.9z"></path>
 <path d="M180.8,100.6c-0.1,1.8-1.5,3.2-3.3,3.1c-1.9,0-3.3-1.6-3.2-3.4c0.1-1.9,1.5-3.1,3.3-3C179.5,97.4,180.9,98.8,180.8,100.6z"></path>
 <path d="M145.9,197.5c-1.9,0-3.2-1.2-3.2-3.2c0-1.8,1.4-3.3,3.1-3.3c1.8-0.1,3.3,1.5,3.3,3.3C149.1,196.1,147.8,197.5,145.9,197.5z "></path>
 <path d="M108.5,195.5c0,1.8-1.4,3.3-3.2,3.3s-3.3-1.6-3.3-3.3c0-1.9,1.4-3.1,3.3-3.1C107.1,192.3,108.5,193.6,108.5,195.5z"></path>
 <path d="M155.4,180.8c-1.8,0-3.2-1.5-3.1-3.3c0-1.8,1.4-3.2,3.3-3.2s3.3,1.5,3.2,3.4C158.7,179.5,157.3,180.8,155.4,180.8z"></path>
 <path d="M219,89.1c1.9,0,3.2,1.3,3.2,3.2c0,1.9-1.6,3.3-3.4,3.3c-1.8-0.1-3.1-1.5-3.1-3.3C215.7,90.3,217.1,89,219,89.1z"></path>
 <path d="M115.6,163.8c0,1.8-1.5,3.3-3.2,3.3c-1.9,0-3.3-1.5-3.3-3.3c0-1.9,1.4-3.1,3.3-3.1C114.4,160.7,115.6,162,115.6,163.8z"></path>
 <path d="M103.3,54.1c-1.8,0-3.3-1.3-3.3-3.1c-0.1-1.8,1.3-3.3,3.1-3.3c1.8-0.1,3.4,1.5,3.4,3.3C106.5,52.6,105,54.1,103.3,54.1z"></path>
 <path d="M106.5,59.1c0.1,1.7-1.4,3.3-3.2,3.3c-1.8,0.1-3.3-1.2-3.3-3c-0.1-1.9,1.3-3.4,3.2-3.4C105,56,106.4,57.4,106.5,59.1z"></path>
 <path d="M197.3,100.5c0,1.8-1.4,3.2-3.2,3.2s-3.2-1.4-3.3-3.2c0-1.9,1.4-3.3,3.3-3.3C196.1,97.3,197.3,98.7,197.3,100.5z"></path>
 <path d="M126.7,197.5c-1.9,0-3.2-1.2-3.3-3.1c0-1.9,1.4-3.4,3.2-3.3c1.7,0,3.2,1.5,3.3,3.3C130,196.1,128.6,197.5,126.7,197.5z"></path>
</symbol>
<symbol id="client-uva" viewBox="0 0 256 256">
 <path d="M127.9,52H51.6v76.2l0,0v76.2h76.2H204v-76.2V52H127.9z M115.2,69.5l-5.7-5.7l3.4-3.4l3.4-3.4l5.7,5.7l5.7,5.7 l5.6-5.5l5.6-5.5l3.2,3.2c1.7,1.7,3.2,3.4,3.2,3.6c0,0.2-2.4,2.8-5.4,5.8l-5.4,5.4l5.9,5.9l5.9,5.9l-3.4,3.4l-3.4,3.4l-5.9-5.9 l-5.9-5.9l-5.8,5.8l0,0c-3.2,3.2-6,5.8-6.2,5.8s-1.9-1.4-3.6-3.2l-3.2-3.2l6-6l6-6.1L115.2,69.5z M121.8,132.2 c-3.2,3.2-6,5.8-6.2,5.8c-0.6,0-6.3-5.8-6.3-6.3c0-0.2,2.6-3,5.8-6.2l5.8-5.8l-5.5-5.6l-5.5-5.6l3.4-3.4l3.4-3.4l5.6,5.5l5.6,5.5 l5.4-5.4c2.9-2.9,5.5-5.4,5.8-5.4c0.6,0,6.3,5.8,6.3,6.3c0,0.2-2.4,2.8-5.4,5.8l-5.4,5.4l5.9,5.9l5.9,5.9l-3.4,3.4l-3.4,3.4 l-5.9-5.9l-5.9-5.9L121.8,132.2L121.8,132.2z M142.8,194.3c-1.7,1.7-3.4,3.2-3.6,3.2c-0.3,0-3-2.6-6.1-5.8l0,0l-5.5-5.8l-6,5.9 l-6,5.9l-3.4-3.4l-3.4-3.4l6-6l6-6l-5.5-5.6l-5.5-5.6l3.4-3.4l3.4-3.4l5.6,5.5l5.6,5.5l5.4-5.4l5.4-5.4l3.4,3.4l3.4,3.4l-5.5,5.6 l-5.5,5.6l5.9,5.9l5.9,5.9L142.8,194.3z M156.9,158.4L156.9,158.4L156.9,158.4c-3.5,1-6.5,1.9-6.6,1.9c-0.2,0-0.3-3.1-0.3-6.8v-6.9 l-3.6,3.5c-4.7,4.5-9,6.8-15.7,8.3c-7,1.6-14.1,1.6-20.1,0c-5.6-1.5-8.5-2.9-11.4-5.5c-5.4-5-5.9-6.8-6-21c0-5.7-0.3-15.6-0.6-22 S92,98,92,98s2.8-0.2,6.2-0.2l6.2-0.2v11.8c0,6.6,0.2,15.6,0.4,20.1c0.6,12.1,1.6,14.7,6.7,17.2c3.8,1.9,8.7,2.8,15,2.7 c11-0.1,18.9-3.2,21-8.3c2.6-6.2,3.3-25.1,1.7-40.8l-0.2-2.4l4.3-0.3c2.4-0.2,5.4-0.3,6.9-0.3h2.5l-0.3,6.5 c-0.6,9.9-0.4,35.7,0.3,43.1c0.3,3.6,0.6,7.3,0.6,8.1v1.5L156.9,158.4z"></path>
</symbol>
<symbol id="client-resn" viewBox="0 0 256 256">
 <path d="M24,187.1c0-39.4,0-78.8,0-118.3c69.3,0,138.7,0,208,0c0,39.6,0,78.8,0,118.3C162.6,187.1,93.2,187.1,24,187.1z M61.7,156.5c0.3-0.3,0.4-0.5,0.6-0.6c6-2.9,8.5-9.4,7.2-16.6c-1.3-7-5.4-11.1-12.7-11.8c-7.2-0.7-14.4-0.4-21.7-0.5 c-0.1,0-0.3,0.2-0.4,0.3c0,15.3,0,30.7,0,46c4,0,7.7,0,11.7,0c0-12.1,0-23.8,0-35.8c2.2,0,4.1-0.2,6,0.1c3.7,0.5,5.8,2.9,6,6.3 c0.2,4-2.1,6.5-6.5,7c-1.7,0.2-3.3,0.2-5.2,0.3c4,7.4,7.7,14.3,11.6,21.4c0.3,0.4,1,1,1.5,1c3.6,0.1,7.2,0.1,11.4,0.1 C67.9,167.5,64.8,162.1,61.7,156.5z M80,159.8c0.6,0,1.1-0.1,1.6-0.1c7.3,0,14.6,0,22,0c1.3,0,2.3-0.1,2.5-1.8 c1.4-12.3-9.9-22.8-21.8-20.2c-9.8,2.1-16.2,11.4-14.6,21.4c1.5,9.7,10.6,16.5,20.5,15.5c6.3-0.7,13-6.1,14.5-12.1 c-2.3,0-4.6,0.1-6.8,0c-2-0.1-3.6,0.3-5.2,1.8C88.8,167.5,80.5,165.3,80,159.8z M106.3,163c-0.2,2.7,0.7,5,2.6,7 c5.4,6,17.1,6.1,22.5,0.2c5.4-5.7,3.7-13.9-3.6-17c-1.8-0.8-3.7-1.1-5.5-1.8c-1.4-0.5-2.9-1.1-4.2-1.8c-0.5-0.4-1.1-1.3-1-1.9 c0.1-0.6,0.8-1.4,1.5-1.7c1.6-0.6,3.2-0.4,4.3,1.2c0.3,0.4,0.8,1,1.1,1.1c3.1,0.1,6.1,0.1,9.3,0.1c-0.4-4.1-2-7.1-5.4-8.9 c-4.9-2.6-9.9-2.8-15-0.4c-4.2,2-6.6,5.5-6.5,10.4c0.1,4.7,3.3,7,7.2,8.5c2.6,1.1,5.4,1.9,8,3c1.3,0.5,2.9,1.4,2.1,3 c-0.5,1.1-2.1,2.2-3.3,2.2c-1.3,0-2.6-1.2-3.8-1.9c-0.5-0.3-0.9-1.1-1.4-1.1C112.2,162.9,109.2,163,106.3,163z M146.2,173.2 c0-1.1,0-1.9,0-2.8c0-5.9-0.1-11.7,0.1-17.6c0.1-3.9,2.2-5.7,5.8-5.8c3.4,0,5.2,1.7,5.4,5.5c0.2,3.9,0.2,7.8,0.2,11.7 c0,1.1,0,2.3,0,3.1c2.1-2.6,3.8-5.8,6.2-7.9c4.2-3.6,4.8-7.7,3.7-12.8c-1.2-5.6-5.4-9.2-11.1-9.5c-4.2-0.3-7.9,0.7-10.7,4.4 c-0.2-1.3-0.4-2.3-0.4-3.1c-3.3,0-6.3,0-9.3,0c0,11.7,0,23.1,0,34.7C139.3,173.2,142.5,173.2,146.2,173.2z M172.7,156.2 c-1.4,1.8-3.3,4-5.1,6.2c-1.3,1.7-3,3.1-4,4.8c-2.1,3.7-1.9,7.5,0.5,11c2.6,3.7,6.3,5.1,10.6,4.3c4.1-0.7,6.9-3.3,8.1-7.3 c1.4-4.6-0.4-8.2-3.4-11.5C177,161.3,174.8,158.5,172.7,156.2z"></path>
 <path d="M80.3,151.4c0.7-3.3,3.4-5.3,7.2-5.4c3.9-0.1,6.8,1.8,7.7,5.4C90.3,151.4,85.2,151.4,80.3,151.4z"></path>
</symbol>
<symbol id="client-tribalddb" viewBox="0 0 256 256">
 <rect x="46.9" y="124.3" width="6.5" height="6.4"></rect>
 <rect x="46.9" y="108.2" width="6.5" height="6.4"></rect>
 <rect x="46.9" y="116.3" width="6.5" height="6.4"></rect>
 <rect x="46.9" y="100.3" width="6.5" height="6.5"></rect>
 <rect x="54.9" y="132.2" width="6.4" height="6.4"></rect>
 <rect x="54.9" y="148.3" width="6.4" height="6.4"></rect>
 <rect x="54.9" y="140.3" width="6.4" height="6.4"></rect>
 <rect x="38.8" y="116.3" width="6.6" height="6.4"></rect>
 <rect x="38.8" y="108.2" width="6.6" height="6.4"></rect>
 <rect x="38.8" y="124.3" width="6.6" height="6.4"></rect>
 <rect x="38.8" y="100.3" width="6.6" height="6.5"></rect>
 <rect x="46.9" y="140.3" width="6.5" height="6.4"></rect>
 <rect x="46.9" y="148.3" width="6.5" height="6.4"></rect>
 <rect x="46.9" y="132.2" width="6.5" height="6.4"></rect>
 <rect x="112.8" y="133.1" width="5.2" height="22.2"></rect>
 <rect x="112.8" y="124.3" width="5.2" height="5.2"></rect>
 <path d="M164.5,151.9v-11.8v-2.2l-0.5-2c-0.3-0.7-0.8-1.3-1.6-1.8c-1.7-1.2-3.9-1.7-7.1-1.7c-3.2,0-5.6,0.7-7.2,2 c-1.5,1.3-2.4,3.1-2.5,5.2l5.4,0.4c0-0.9,0.1-1.7,0.6-2.2c0.6-0.8,1.9-1.3,3.8-1.3c1.8,0,3,0.5,3.5,1.5l0.3,2l-2.5,0.6l-3.6,0.9 l-2.8,0.6c-1,0.4-1.8,0.9-2.7,1.4c-2,1.1-3,3-3.1,5.5c0,1.3,0.3,2.4,1,3.4c0.7,1.4,2,2.6,3.9,3.1l3.1,0.3c1.4,0,2.9-0.3,4.4-1 l2-1.1l0.4,1.8h6.2l-0.8-1.6L164.5,151.9z M159.2,146.7l-0.3,2.2l-1.7,1.6c-1,0.7-2.2,1-3.5,1c-1.2,0-2.2-0.3-2.8-0.8 c-0.5-0.5-0.9-1.2-0.9-2s0.5-1.7,1.4-2.2c0.5-0.3,1-0.5,1.8-0.6l1.8-0.4l4.1-1.1h0.1L159.2,146.7L159.2,146.7z"></path>
 <path d="M133.3,132.4l-2.4,0.3c-1.1,0.2-2.3,0.7-3.1,1.5l-0.9,0.7v-11h-5.2v31.4h5.2V153l1,1c1.5,1.3,3.1,2,4.9,2 c1.6,0,3.1-0.3,4.6-1.2c1.8-1.1,3.3-2.6,4.3-4.6c0.8-1.9,1.3-3.9,1.3-6.3c0-3.5-1.2-6.4-3.3-8.8 C137.8,133.4,135.8,132.4,133.3,132.4z M136.2,148.6l-2.3,2l-1.7,0.3c-1.1,0-2.1-0.3-3.3-1c-1.5-1.1-2.2-3.3-2.2-6 c0-2.2,0.5-3.9,1.7-5.3c0.8-1,2-1.5,3.5-1.5l2.5,0.7c0.8,0.5,1.3,1,1.8,1.8c0.9,1.2,1.2,2.6,1.2,4.4 C137.2,146.1,136.9,147.6,136.2,148.6z"></path>
 <rect x="167.8" y="123.9" width="5.4" height="31.4"></rect>
 <rect x="54.9" y="124.3" width="6.4" height="6.4"></rect>
 <path d="M219.2,131.8l-3.3-0.3h-8.4v23.8h10.4l2.8-0.6c2.3-0.9,4.1-2.2,5.2-4.3c0.9-2,1.4-4.2,1.4-6.7 c0-3.4-0.9-6.1-2.4-8.3C223.4,133.5,221.7,132.3,219.2,131.8z M221.8,145.6l-1,3.2c-0.7,0.9-1.7,1.5-2.8,1.9l-1.5,0.1h-3.4V136h3.6 l1.3,0.1c0.9,0.2,1.5,0.7,2,1.2c1.2,1.3,1.9,3.5,2,6.1L221.8,145.6z"></path>
 <path d="M195.9,131.8l-3.4-0.3h-8.4v23.8h10.4l2.8-0.6c2.4-0.9,4.2-2.2,5.2-4.3c1-2,1.5-4.2,1.5-6.7 c0-3.4-0.9-6.1-2.5-8.3C200,133.5,198.2,132.3,195.9,131.8z M198.4,145.6l-1,3.2c-0.5,1-1.5,1.7-2.8,1.9l-1.5,0.1h-3.3V136h3.5 l1.4,0.1c0.8,0.2,1.5,0.7,2,1.2c1.1,1.3,1.8,3.5,1.9,6.1L198.4,145.6z"></path>
 <path d="M248.3,144.7l-2-1.8l-1.8-0.7l1.6-0.7c0.9-0.4,1.5-1.2,1.9-2.1l0.4-2c0-1.4-0.5-2.7-1.7-3.9 c-0.9-1.2-2.2-1.7-4.1-1.8l-3.5-0.2h-8.4v23.8h12.4c1.2-0.1,2.4-0.5,3.2-1l2.5-2.5c0.5-0.9,0.7-2,0.7-3.2 C249.5,147.2,249.1,145.9,248.3,144.7z M236.4,135.3h2.5l1.8,0.2c0.7,0.1,1.2,0.5,1.5,1.1l0.5,1.4l-0.5,2l-1,0.7l-1.1,0.2l-1.4,0.1 h-2.3V135.3z M243.4,150.3c-0.5,0.5-1,1-1.5,1.1l-1.7,0.2h-3.7v-7.1h4.4c0.7,0.2,1.2,0.4,1.5,0.7c1,0.7,1.5,1.6,1.5,2.9 C243.9,148.9,243.7,149.8,243.4,150.3z"></path>
 <rect x="54.9" y="108.2" width="6.4" height="6.4"></rect>
 <rect x="54.9" y="116.3" width="6.4" height="6.4"></rect>
 <rect x="54.9" y="100.3" width="6.4" height="6.5"></rect>
 <polygon points="98.7,123.9 76,123.9 76,129.2 84.4,129.2 84.4,155.3 90.1,155.3 90.1,129.2 98.7,129.2 "></polygon>
 <path d="M106.9,132.7c-1.2,0.2-2.2,0.7-3,1.5l-1.3,1.8v-3h-5.1v22.2h5.1v-9.4c0-1.6,0.1-2.9,0.3-3.8 c0.8-2.7,3.2-4,6.7-4.2v-5.4h-0.4L106.9,132.7z"></path>
 <rect x="38.8" y="132.2" width="6.6" height="6.4"></rect>
 <rect x="14.9" y="108.2" width="6.4" height="6.4"></rect>
 <rect x="14.9" y="140.3" width="6.4" height="6.4"></rect>
 <rect x="14.9" y="132.2" width="6.4" height="6.4"></rect>
 <rect x="14.9" y="148.3" width="6.4" height="6.4"></rect>
 <rect x="14.9" y="124.3" width="6.4" height="6.4"></rect>
 <rect x="14.9" y="100.3" width="6.4" height="6.5"></rect>
 <rect x="6.8" y="100.3" width="6.4" height="6.5"></rect>
 <rect x="14.9" y="116.3" width="6.4" height="6.4"></rect>
 <rect x="6.8" y="124.3" width="6.4" height="6.4"></rect>
 <rect x="6.8" y="132.2" width="6.4" height="6.4"></rect>
 <rect x="6.8" y="108.2" width="6.4" height="6.4"></rect>
 <rect x="6.8" y="148.3" width="6.4" height="6.4"></rect>
 <rect x="6.8" y="140.3" width="6.4" height="6.4"></rect>
 <rect x="38.8" y="140.3" width="6.6" height="6.4"></rect>
 <rect x="6.8" y="116.3" width="6.4" height="6.4"></rect>
 <rect x="22.9" y="148.3" width="6.4" height="6.4"></rect>
 <rect x="30.9" y="124.3" width="6.4" height="6.4"></rect>
 <rect x="30.9" y="132.2" width="6.4" height="6.4"></rect>
 <rect x="30.9" y="116.3" width="6.4" height="6.4"></rect>
 <rect x="30.9" y="108.2" width="6.4" height="6.4"></rect>
 <rect x="30.9" y="140.3" width="6.4" height="6.4"></rect>
 <rect x="38.8" y="148.3" width="6.6" height="6.4"></rect>
 <rect x="30.9" y="100.3" width="6.4" height="6.5"></rect>
 <rect x="30.9" y="148.3" width="6.4" height="6.4"></rect>
 <rect x="22.9" y="116.3" width="6.4" height="6.4"></rect>
 <rect x="22.9" y="124.3" width="6.4" height="6.4"></rect>
 <rect x="22.9" y="140.3" width="6.4" height="6.4"></rect>
 <rect x="22.9" y="132.2" width="6.4" height="6.4"></rect>
 <rect x="22.9" y="100.3" width="6.4" height="6.5"></rect>
 <rect x="22.9" y="108.2" width="6.4" height="6.4"></rect>
</symbol>
<symbol id="client-novartis" viewBox="0 0 256 256">
 <path d="M238.5,147c-0.5-0.2-0.5-0.3-0.5-1c0-1.6,0.1-3.3,0.1-3.8c0-0.4,0.1-0.8,0.4-0.8c0.3,0,0.3,0.3,0.3,0.5 c0,0.4,0.1,1,0.3,1.5c0.6,2.2,2.4,2.9,4.2,2.9c2.6,0,3.9-1.8,3.9-3.3c0-1.4-0.4-2.8-2.8-4.7l-1.3-1c-3.2-2.5-4.3-4.5-4.3-6.9 c0-3.2,2.7-5.5,6.7-5.5c1.9,0,3.1,0.3,3.9,0.5c0.3,0.1,0.4,0.1,0.4,0.3c0,0.4-0.1,1.2-0.1,3.5c0,0.6-0.1,0.9-0.3,0.9 s-0.3-0.2-0.3-0.5s-0.2-1.2-0.8-1.9c-0.4-0.6-1.3-1.4-3.2-1.4c-2.2,0-3.5,1.2-3.5,3c0,1.3,0.7,2.4,3.1,4.2l0.8,0.6 c3.5,2.7,4.8,4.7,4.8,7.4c0,1.7-0.6,3.7-2.7,5.1c-1.5,0.9-3.1,1.2-4.6,1.2C241,147.8,239.7,147.6,238.5,147"></path>
 <path d="M68.2,143.4c0.1,2.3,0.4,3,1,3.2c0.5,0.2,1,0.2,1.5,0.2c0.3,0,0.5,0.1,0.5,0.2c0,0.2-0.3,0.3-0.7,0.3 c-1.9,0-3-0.1-3.6-0.1c-0.3,0-1.6,0.1-3.1,0.1c-0.4,0-0.6,0-0.6-0.3c0-0.2,0.2-0.2,0.5-0.2c0.4,0,0.9,0,1.3-0.1 c0.7-0.2,0.9-1.1,0.9-3.6l0.3-17.2c0-0.6,0.1-1,0.4-1s0.6,0.4,1.1,0.9c0.4,0.4,4.8,5.1,9,9.3c2,2,5.9,6.2,6.4,6.6h0.2L83,128.6 c0-1.8-0.3-2.3-1-2.6c-0.4-0.2-1.1-0.2-1.5-0.2s-0.5-0.1-0.5-0.3c0-0.2,0.3-0.3,0.8-0.3c1.5,0,2.9,0.1,3.5,0.1 c0.3,0,1.4-0.1,2.9-0.1c0.4,0,0.7,0,0.7,0.3c0,0.2-0.2,0.3-0.5,0.3s-0.5,0-0.9,0.1c-0.8,0.2-1,0.8-1.1,2.5l-0.3,18.4 c0,0.6-0.1,0.9-0.4,0.9s-0.7-0.3-1-0.6c-1.8-1.7-5.6-5.6-8.6-8.6c-3.2-3.1-6.4-6.8-6.9-7.3h-0.1L68.2,143.4"></path>
 <path d="M112.9,136.9c0-6.5-3.8-10.6-8.5-10.6c-3.3,0-7.1,1.9-7.1,9.1c0,6.1,3.3,10.8,8.9,10.8 C108.2,146.3,112.9,145.3,112.9,136.9z M93.2,136.4c0-5,3.3-11.4,12-11.4c7.2,0,11.8,4.2,11.8,10.9s-4.7,11.9-12,11.9 C96.6,147.8,93.2,141.5,93.2,136.4"></path>
 <path d="M123.1,128.2c-0.7-1.6-1.2-1.9-2.2-2.2c-0.4-0.1-0.9-0.1-1.1-0.1c-0.3,0-0.3-0.1-0.3-0.3c0-0.2,0.3-0.3,0.7-0.3 c1.5,0,3.2,0.1,4.2,0.1c0.7,0,2.1-0.1,3.6-0.1c0.3,0,0.7,0.1,0.7,0.3c0,0.2-0.2,0.3-0.4,0.3c-0.5,0-0.9,0-1.1,0.2 c-0.2,0.1-0.3,0.4-0.3,0.6c0,0.4,0.3,1.2,0.7,2.2l5,13.2h0.1c1.3-3.2,5-12.6,5.7-14.5c0.2-0.4,0.3-0.8,0.3-1.1 c0-0.2-0.1-0.5-0.4-0.6c-0.3-0.1-0.8-0.1-1.2-0.1c-0.3,0-0.5,0-0.5-0.2s0.3-0.3,0.8-0.3c1.4,0,2.7,0.1,3,0.1c0.5,0,1.9-0.1,2.7-0.1 c0.4,0,0.6,0.1,0.6,0.3c0,0.2-0.2,0.3-0.5,0.3s-0.9,0-1.4,0.3c-0.4,0.3-0.8,0.8-1.6,2.6c-1.1,2.7-1.9,4.3-3.5,7.9 c-1.9,4.2-3.2,7.4-3.9,8.9c-0.8,1.7-0.9,2.2-1.3,2.2c-0.4,0-0.6-0.4-1.1-1.8L123.1,128.2"></path>
 <path d="M155.9,138.3c0.2,0,0.2-0.1,0.2-0.2l-2.6-7.2c0-0.1-0.1-0.3-0.1-0.3c-0.1,0-0.2,0.1-0.2,0.3l-2.7,7.2 c0,0.1,0,0.2,0.1,0.2H155.9z M150,139.8c-0.2,0-0.2,0.1-0.3,0.2l-1.6,4.2c-0.3,0.7-0.4,1.4-0.4,1.8c0,0.5,0.3,0.9,1.2,0.9h0.4 c0.3,0,0.4,0.1,0.4,0.2c0,0.2-0.2,0.3-0.5,0.3c-0.9,0-2.2-0.1-3.1-0.1c-0.3,0-1.9,0.1-3.4,0.1c-0.4,0-0.5-0.1-0.5-0.3 s0.1-0.2,0.3-0.2c0.3,0,0.7,0,0.9-0.1c1.4-0.2,1.9-1.2,2.5-2.6l7.3-18.3c0.3-0.8,0.5-1.2,0.8-1.2s0.4,0.3,0.7,0.9 c0.7,1.6,5.4,13.5,7.2,17.9c1.1,2.6,1.9,3,2.6,3.2c0.4,0.1,0.9,0.1,1.2,0.1c0.2,0,0.4,0,0.4,0.2s-0.3,0.3-1.3,0.3s-3.2,0-5.5-0.1 c-0.5,0-0.9,0-0.9-0.2s0.1-0.2,0.4-0.3c0.2-0.1,0.4-0.3,0.3-0.7l-2.3-6.2c-0.1-0.1-0.1-0.2-0.3-0.2H150"></path>
 <path d="M176.5,136.1c0,0.3,0.1,0.4,0.3,0.5c0.6,0.2,1.5,0.3,2.2,0.3c1.2,0,1.5-0.1,2.1-0.5c0.9-0.6,1.7-2,1.7-4.4 c0-4.1-2.7-5.3-4.5-5.3c-0.7,0-1.3,0-1.5,0.1s-0.3,0.2-0.3,0.4V136.1z M173,133.8c0-4.4,0-5.2-0.1-6.2s-0.3-1.5-1.3-1.7 c-0.2-0.1-0.7-0.1-1.1-0.1c-0.3,0-0.5-0.1-0.5-0.3c0-0.2,0.2-0.3,0.6-0.3c1.5,0,3.4,0.1,4,0.1c1,0,3.2-0.1,4.1-0.1 c1.8,0,3.8,0.2,5.4,1.2c0.8,0.6,2,2,2,4c0,2.2-0.9,4.1-3.8,6.5c2.6,3.3,4.6,5.8,6.3,7.7c1.6,1.7,2.8,1.9,3.3,2 c0.3,0.1,0.6,0.1,0.8,0.1s0.4,0.1,0.4,0.2c0,0.2-0.2,0.3-0.6,0.3h-2.8c-1.6,0-2.4-0.1-3.1-0.6c-1.3-0.7-2.4-2-4-4.3 c-1.2-1.6-2.5-3.6-2.9-4c-0.2-0.2-0.3-0.2-0.5-0.2l-2.5-0.1c-0.1,0-0.2,0.1-0.2,0.2v0.4c0,2.7,0,5,0.1,6.2c0.1,0.8,0.3,1.5,1.1,1.6 c0.4,0.1,1.1,0.1,1.4,0.1c0.2,0,0.4,0.1,0.4,0.2c0,0.2-0.2,0.3-0.6,0.3c-1.7,0-3.8-0.1-4.3-0.1s-2.4,0.1-3.5,0.1 c-0.4,0-0.6-0.1-0.6-0.3c0-0.1,0.1-0.2,0.5-0.2s0.8-0.1,1-0.1c0.6-0.1,0.7-0.8,0.8-1.6c0.2-1.2,0.2-3.5,0.2-6.2L173,133.8"></path>
 <path d="M202.3,127l-4.3,0.1c-1.7,0.1-2.4,0.2-2.8,0.8c-0.3,0.4-0.4,0.8-0.5,1s-0.2,0.4-0.3,0.4c-0.2,0-0.3-0.1-0.3-0.5 c0-0.5,0.5-3.1,0.6-3.3c0.1-0.4,0.2-0.6,0.3-0.6c0.2,0,0.5,0.3,1.3,0.4s1.9,0.1,2.9,0.1h11.5c1.9,0,2.6-0.3,2.8-0.3s0.2,0.2,0.2,0.6 c0,0.6-0.1,2.6-0.1,3.4c0,0.3-0.1,0.5-0.3,0.5s-0.3-0.1-0.3-0.6v-0.3c-0.1-0.8-0.8-1.6-3.4-1.6L206,127v11.9c0,2.7,0,5,0.2,6.2 c0.1,0.8,0.3,1.5,1.1,1.6c0.4,0.1,1,0.1,1.5,0.1c0.3,0,0.5,0.1,0.5,0.2c0,0.2-0.2,0.3-0.6,0.3c-1.9,0-3.7-0.1-4.6-0.1 c-0.7,0-2.5,0.1-3.7,0.1c-0.4,0-0.6-0.1-0.6-0.3c0-0.1,0.1-0.2,0.5-0.2s0.8-0.1,1-0.1c0.6-0.1,0.8-0.8,0.8-1.6 c0.2-1.2,0.2-3.5,0.2-6.2L202.3,127"></path>
 <path d="M223.4,133.8c0-4.4,0-5.2-0.1-6.2s-0.3-1.5-1-1.6c-0.3-0.1-0.7-0.1-1-0.1s-0.5-0.1-0.5-0.3 c0-0.2,0.2-0.2,0.7-0.2c1.1,0,2.9,0.1,3.8,0.1c0.7,0,2.4-0.1,3.5-0.1c0.4,0,0.6,0.1,0.6,0.2c0,0.2-0.2,0.3-0.5,0.3s-0.5,0-0.9,0.1 c-0.8,0.1-1,0.6-1.1,1.7c-0.1,0.9-0.1,1.7-0.1,6.2v5.1c0,2.8,0,5.1,0.1,6.4c0.1,0.8,0.3,1.3,1.2,1.4c0.4,0.1,1.1,0.1,1.5,0.1 c0.3,0,0.5,0.1,0.5,0.2c0,0.2-0.2,0.3-0.6,0.3c-1.9,0-3.7-0.1-4.5-0.1c-0.7,0-2.5,0.1-3.7,0.1c-0.4,0-0.6-0.1-0.6-0.3 c0-0.1,0.1-0.2,0.5-0.2s0.8-0.1,1.1-0.1c0.6-0.1,0.8-0.6,0.8-1.5c0.2-1.2,0.2-3.5,0.2-6.3v-5.2"></path>
 <path d="M25.8,140.4l2.7-33.7h-6.4l3.4,33.7C25.6,140.7,25.8,140.7,25.8,140.4"></path>
 <path d="M33.1,123.5c4,3.1,10.5,20.6-5.4,25.6c-0.3,0.1-0.2,0.3,0,0.2c25.2-3.2,16.6-21.3,5.6-26 C33,123.1,32.9,123.3,33.1,123.5"></path>
 <path d="M23.6,149.3c-16.1-1.2-21-10.5-15.6-21c2.9-5.6,7.3-11.7,2-17.3c-0.1-0.2,0-0.3,0.2-0.2 c12.1,4.8,5.8,14.5,3.7,18.6c-4.1,7.9-1.5,17.6,9.7,19.6C23.9,149.1,23.9,149.3,23.6,149.3"></path>
</symbol>
<symbol id="client-randstad" viewBox="0 0 256 256">
 <path d="M107.753,68.431c0,0-23.482-23.482-23.49-23.482c-1.396-1.435-3.288-2.218-5.344-2.218H39.501 v14.999h43.157c3.288,0,6.382,1.279,8.709,3.606c2.326,2.326,3.606,5.413,3.606,8.709v43.148h14.991V73.774 C109.963,71.727,109.18,69.827,107.753,68.431"></path>
 <path d="M149.568,42.73c-2.047,0-3.947,0.784-5.343,2.218l-23.482,23.482 c-1.427,1.396-2.21,3.296-2.21,5.343v39.418h14.99V70.044c0-6.793,5.521-12.315,12.315-12.315h43.149V42.73H149.568"></path>
 <path d="M50.692,142.419c-2.174,0-4.416,1.535-5.451,3.737l-0.035,0.071h-0.292v-3.295h-3.407v21.103 h3.655v-9.592c0-5.375,2.336-8.848,5.948-8.848c0.78,0,1.461,0.121,2.051,0.337v-3.244 C52.377,142.529,51.802,142.419,50.692,142.419"></path>
 <path d="M163.328,144.455c-1.373-1.375-3.442-2.041-6.329-2.041c-2.376,0-4.694,0.657-6.891,1.941 l0.188,3.058c1.612-1.295,3.912-2.096,6.076-2.096c1.851,0,3.173,0.423,4.043,1.294c0.923,0.92,1.353,2.329,1.353,4.435v0.136 l-0.135-0.009c-1.557-0.084-2.655-0.084-4.175-0.081c-2.594-0.003-6.083,0.715-8.101,2.733c-1.117,1.117-1.684,2.522-1.684,4.172 c0,1.936,0.557,3.475,1.656,4.575c1.299,1.295,3.387,1.98,6.04,1.98c3.815,0,5.815-2.229,6.498-3.188l0.038-0.053h0.278v2.718 h3.241v-12.917C165.423,148.042,164.74,145.865,163.328,144.455z M161.768,153.841v2.014c0,1.676-0.537,3.104-1.547,4.132 c-1.073,1.09-2.634,1.664-4.518,1.667c-1.147,0-2.339-0.482-3.112-1.252c-0.644-0.646-0.987-1.469-0.987-2.382 c0-3.847,5.263-4.263,7.528-4.263c0.42,0,0.848,0.022,1.259,0.043s0.833,0.041,1.25,0.041H161.768"></path>
 <path d="M68.323,144.455c-1.375-1.375-3.444-2.041-6.331-2.041c-2.376,0-4.694,0.657-6.892,1.941 l0.188,3.058c1.612-1.295,3.912-2.096,6.076-2.096c1.851,0,3.175,0.423,4.043,1.294c0.923,0.919,1.352,2.329,1.352,4.435v0.136 l-0.134-0.009c-1.554-0.084-2.653-0.084-4.174-0.081c-2.592-0.003-6.083,0.715-8.099,2.733c-1.12,1.117-1.687,2.522-1.687,4.172 c0,1.936,0.557,3.475,1.659,4.575c1.296,1.295,3.384,1.98,6.037,1.98c3.816,0,5.815-2.229,6.499-3.188l0.039-0.053h0.276v2.718 h3.243v-12.917C70.418,148.042,69.73,145.865,68.323,144.455z M66.76,153.841v2.014c0,1.676-0.536,3.104-1.547,4.132 c-1.07,1.09-2.633,1.664-4.518,1.667c-1.147,0-2.338-0.482-3.109-1.252c-0.646-0.646-0.988-1.469-0.988-2.382 c0-3.847,5.263-4.263,7.526-4.263c0.42,0,0.848,0.022,1.261,0.043c0.409,0.021,0.832,0.041,1.248,0.041H66.76"></path>
 <path d="M90.214,144.377c-1.303-1.304-3.183-1.963-5.586-1.963c-3.017,0-5.788,1.526-6.891,3.799 l-0.035,0.074h-0.293v-3.351h-3.53v21.099h3.658v-9.753c0-2.738,0.534-4.91,1.589-6.452c1.141-1.668,2.838-2.513,5.047-2.513 c3.347,0.206,4.652,2.383,4.652,7.767v10.951h3.659v-12.588C92.483,148.261,91.719,145.882,90.214,144.377"></path>
 <path d="M125.85,151.871c-2.018-0.922-3.925-1.791-3.925-3.815c0-1.665,1.526-2.738,3.887-2.738 c0.862,0,3.02,0.482,4.035,1.022l0.304-3.115c-1.616-0.488-3.057-0.811-4.757-0.811c-2.439,0-4.42,0.692-5.728,2 c-1.111,1.109-1.672,2.604-1.672,4.441c0,3.25,2.809,4.623,5.286,5.836c2.035,0.992,3.954,1.932,3.954,3.761 c0,0.827-0.272,1.519-0.809,2.055c-1.031,1.031-2.673,1.144-3.329,1.144c-1.044,0-3.172-0.448-4.782-1.426l-0.19,3.216 c1.899,0.983,4.053,1.112,5.723,1.112c1.972,0,3.774-0.56,5.071-1.582c1.47-1.159,2.248-2.865,2.248-4.942 C131.167,154.296,128.342,153.01,125.85,151.871"></path>
 <path d="M143.917,161.653c-0.906,0-1.737-0.338-2.343-0.942c-0.715-0.715-1.092-1.758-1.092-3.015 v-11.861h5.651v-2.902h-5.651v-6.149l-3.66,1.176v4.974h-4.815v2.902h4.815v12.66c0,1.924,0.515,3.412,1.533,4.428 c1.08,1.082,2.727,1.63,4.892,1.63c1.235,0,2.452-0.332,3.221-0.55v-3.022C145.715,161.42,144.861,161.653,143.917,161.653"></path>
 <path d="M184.682,132.891v12.936h-0.283l-0.037-0.061c-1.377-2.226-3.719-3.352-6.959-3.352 c-2.473,0-4.528,0.8-6.106,2.376c-1.916,1.916-2.971,4.863-2.971,8.297c0,3.811,1.154,7.151,3.168,9.161 c1.528,1.532,3.502,2.305,5.866,2.305c3.614,0,6.074-1.773,7.17-3.437l0.037-0.06h0.278v2.973h3.494v-31.139H184.682z M184.682,153.525c0,2.582-0.882,5.005-2.362,6.485c-1.087,1.089-2.446,1.643-4.04,1.643c-1.433,0-2.678-0.529-3.695-1.573 c-1.795-1.843-2.376-4.75-2.33-6.678c-0.058-2.72,0.711-5.098,2.107-6.526c1.013-1.034,2.318-1.559,3.876-1.559 c1.609,0,2.987,0.561,4.09,1.663C183.825,148.476,184.682,150.861,184.682,153.525"></path>
 <path d="M111.768,132.891v12.936h-0.284l-0.038-0.061c-1.379-2.226-3.721-3.352-6.958-3.352 c-2.476,0-4.531,0.8-6.106,2.376c-1.917,1.916-2.974,4.863-2.974,8.297c0,3.811,1.157,7.151,3.168,9.161 c1.529,1.532,3.502,2.305,5.87,2.305c3.612,0,6.071-1.773,7.167-3.437l0.038-0.06h0.28v2.973h3.491v-31.139H111.768z M111.768,153.525c0,2.582-0.885,5.005-2.363,6.484c-1.088,1.09-2.448,1.644-4.038,1.644c-1.436,0-2.678-0.529-3.696-1.573 c-1.796-1.843-2.378-4.75-2.33-6.678c-0.058-2.72,0.708-5.098,2.106-6.526c1.013-1.034,2.316-1.559,3.876-1.559 c1.61,0,2.985,0.561,4.088,1.663C110.909,148.476,111.768,150.861,111.768,153.525"></path>
</symbol>
<symbol id="client-2x4" viewBox="0 0 256 256">
 <path d="M58.4,164.9c-1.3,0.1-2.2,0.1-3,0.1c-14.7,0-29.4-0.1-44.1,0.1c-2.6,0-2.9-0.9-3.2-3.3c-1.1-7,1.9-11.5,7.3-15.7 c7.3-5.7,14.2-12.1,20.8-18.6c3.6-3.5,5.8-8.1,5.7-13.5c-0.1-4.4-2.7-7.7-6.8-8.5c-4.7-0.9-8.5,0.8-10.1,5c-1,2.6-1.2,5.5-1.8,8.4 c-4.3,0-8.9,0.1-13.5-0.1c-0.5,0-1.3-1.1-1.3-1.7C8.2,106,14,94.3,27.7,91.6c8.2-1.6,16-0.6,22.5,5c7.4,6.4,9.1,18.6,4.3,28.8 c-3.5,7.3-9.1,12.8-15.1,18c-2.8,2.5-5.6,4.8-9.1,7.8c7.1,0,13.4,0,19.7,0c2.6,0,6.1-0.6,7.7,0.7c1.3,1.2,0.5,4.9,0.6,7.4 C58.5,161.2,58.4,162.9,58.4,164.9z"></path>
 <path d="M238.3,149.4c0,5.4,0,10.3,0,15.6c-4.6,0-8.9,0.1-13.1-0.1c-0.5,0-1.3-1.5-1.3-2.3c-0.1-4.2-0.1-8.4-0.1-12.9 c-10,0-19.7,0-29.7,0c0-5.4,0-10.4,0.1-15.4c0-0.7,0.7-1.3,1.1-2c8.9-12.7,17.8-25.4,26.7-37.9c0.7-1,2.2-1.8,3.4-1.9 c4.1-0.2,8.2-0.1,12.7-0.1c0,14.8,0,29.4,0,44.4c2.8,0,5.2,0.1,7.7,0c1.7-0.1,2.4,0.6,2.3,2.3c-0.1,3.3,0,6.7,0,10.4 C244.9,149.4,241.8,149.4,238.3,149.4z M223.8,112.3c-5.5,8.2-10.8,16-16.3,24.1c5.7,0,10.9,0,16.3,0 C223.8,128.5,223.8,120.7,223.8,112.3z"></path>
 <path d="M145.8,105.7c3,3.1,5.5,5.7,8.2,8.5c-6.4,6.3-13.1,12.8-20,19.5c6.4,6.4,12.2,12.3,18.3,18.1c2,1.9,1.8,3.1-0.1,4.8 c-1.9,1.7-3.4,3.8-5.4,6c-7-7.2-13.5-13.9-20.1-20.6c-7,7-13.5,13.5-20.1,20.1c-2.8-3-5.3-5.6-8-8.4c6.4-6.1,13.1-12.6,20.1-19.3 c-7.4-7.1-14.1-13.6-20.7-20c3.2-2.9,5.8-5.4,8.3-7.7c6.1,6.1,12.6,12.6,19.4,19.4C132.8,119.1,139.3,112.4,145.8,105.7z"></path>
</symbol>
<symbol id="client-vodafone" viewBox="0 0 256 256">
 <path d="M170.5,185.851c-8.1,0-14.9,6.3-14.9,14.399c0,6.101,3.9,11.3,9.2,13.4c2.601-0.5,4.7-2.9,4.7-5.8 c-4.2-1.101-6.3-3.9-6.3-7.601c0-4.2,3.399-7.6,7.6-7.6s8.101,3.399,8.101,8.6c0,6.601-5.5,12.4-13.2,12.601c-0.3,0-0.5,0-0.8,0 c1.899,0.5,3.6,1.1,5.5,1.1c8.399,0,15.199-6.6,15.199-14.7C185.8,192.15,179,185.851,170.5,185.851z"/>
 <path d="M92.8,188.75c-2.399-1.899-5.2-2.899-8.1-2.899c-7.9,0-14.2,6.6-14.2,14.399c0,8.101,6.3,14.4,14.2,14.4 c2.899,0,5.8-1.101,8.1-2.601v2.4H99.9v-39.7H92.8V188.75z M85.5,207.95c-4.2,0-7.4-3.4-7.4-7.6c0-4.2,3.101-7.601,7.4-7.601 s7.6,3.4,7.6,7.601C93,204.45,89.7,207.95,85.5,207.95z"/>
 <path d="M250.2,200.15c0-7.4-5.8-14.4-14.2-14.4c-8.1,0-14.7,6.601-14.7,14.4c0,8,6.101,14.5,14.7,14.5c7.4,0,12.1-5,13.4-9.2h-7.9 c-1.1,2.1-2.9,3.1-5.8,3.1c-3.601,0-6.601-2.6-6.9-6.1h21C249.9,202.55,250.2,201.75,250.2,200.15z M229.1,197.15 c0.5-3.101,3.101-5,6.601-5c3.1,0,6.1,1.899,6.6,5H229.1z"/>
 <path d="M127.2,188.75c-0.3,0-0.3,0-0.3,0c-2.101-1.899-5-2.899-8.101-2.899c-7.6,0-13.899,6.6-13.899,14.399 c0,8.101,6.3,14.4,13.899,14.4c3.101,0,6.101-1.101,8.4-2.601v2.4h7.1v-28.1h-7.1V188.75L127.2,188.75z M119.9,207.95 c-4.2,0-7.601-3.4-7.601-7.6c0-4.2,3.4-7.601,7.601-7.601c4.199,0,7.6,3.4,7.6,7.601C127.5,204.45,124.1,207.95,119.9,207.95z"/>
 <path d="M149.5,184.55c0-1.6,0-3.899,2.9-3.899c0.8,0,1.3,0,1.3,0v-6.3c0,0-1.101,0-1.9,0c-6.6,0.3-9.399,2.399-9.399,9.199v2.9 H139v6.6h3.4v21.5h7.1v-21.6h4.4v-6.6h-4.4C149.5,186.45,149.5,185.351,149.5,184.55z"/>
 <path d="M56.8,186.65c-0.1,0-0.2,0.1-0.4,0.1c-1.6-0.8-3.4-1.1-5.4-1.1c-8.1,0-14.9,6.6-14.9,14.7c0,7.8,6.8,14.3,14.9,14.3 c8.4,0,15.2-6.601,15.2-14.4C66.2,194.15,62.3,188.95,56.8,186.65z M51,207.95c-4.2,0-8.1-3.6-8.1-8.6 c0-6.601,5.2-12.4,13.2-12.601c0.2,0,0.3,0,0.4,0c-2.4,0.9-4,3.101-4,5.601c0,0.3,0,0.3,0,0.3c4.2,1.1,6.3,3.6,6.3,7.6 C58.7,204.55,55.2,207.95,51,207.95z"/>
 <polygon points="20.9,205.55 14.3,186.45 5.8,186.45 16.1,214.45 25.3,214.45 35.6,186.45 27.4,186.45"/>
 <path d="M129.9,165.351c35.5,0,64.1-27.9,64.1-62.301c0-25.7-16.3-48-39.4-57.5C143.3,48.15,134.7,58.15,134.7,70.25 c0,0.3,0,0.8,0,1.1c18.2,3.601,27,15.7,27,31.7c0,17.9-14.7,32.601-32.601,32.601c-17.899,0-34.699-14.9-34.699-37.2 c0-27,23.1-52.5,56.199-53.3c0.801,0,1.601,0,2.601,0.3c-7.4-2.9-15.2-4.4-23.4-4.4c-35.7,0-64.3,27.9-64.3,62.3 C65.5,137.55,94.1,165.351,129.9,165.351z"/>
 <path d="M205.8,185.75c-3.1,0-6.1,1.101-8.1,2.9v-2.4h-7.4v0.101v28.1h7.601v-15.7c-0.301-5,3.6-6.1,5.8-6.1 c2.399,0,5.2,1.3,5.2,5.2v16.5h7.399v-18.9C216.3,189.95,212.3,185.75,205.8,185.75z"/>
</symbol>
<symbol id="client-buildinamsterdam" viewBox="0 0 256 256">
 <path d="M39,108.6c6.7-2.9,7.9-3.9,8.5-10.4c0.5-6,0.4-12.1-0.3-18c-0.7-5.9-3.6-8.9-9.5-9.2c-7.9-0.5-15.8-0.1-23.9-0.1 c0,25.9,0,51.6,0,77.3c7.7,0,15.2,0.4,22.7-0.1c7.3-0.5,10.6-4,11.4-11.3c0.5-4.8,0.6-9.7,0.6-14.5C48.5,115.7,47.4,109.9,39,108.6 z M24.5,80.6c0-0.6,1-1.4,1.7-1.6c1.1-0.3,2.3-0.1,3.5-0.1c5.8,0.1,7.9,2.1,8,7.8c0,4.4-0.2,8.8-0.6,13.3c-0.2,2.5-1.9,3.7-4.3,3.7 c-2.6,0-5.3,0-8.4,0C24.4,95.8,24.3,88.2,24.5,80.6z M37.6,135.7c-0.1,2.5-2,3.8-4.5,4.2c-8,1.3-8.7,0.7-8.7-7.3c0-6.5,0-13,0-20 c3.3,0,6.1,0,9,0c2.5,0,4.2,1.6,4.2,3.9C37.8,122.8,37.8,129.3,37.6,135.7z"></path>
 <path d="M228.6,70.8c-7.4-0.4-14.8-0.1-22.5-0.1c0,25.9,0,51.6,0,77.5c6.7,0,13.1,0.1,19.5,0c9.9-0.2,15.4-5,15.9-14.8 c0.7-12.4,0.6-24.9,0.7-37.4c0-4.1-0.3-8.2-0.6-12.3C240.8,75.5,236.8,71.2,228.6,70.8z M230.9,129.4c-0.5,8.3-2.8,9.9-11.1,9.9 c-0.8,0-1.7,0-2.8,0c0-20,0-39.7,0-59.9c3.1,0.3,6.1,0.3,8.9,0.9c3.2,0.7,4.6,3.2,4.9,6.3c0.4,3.7,0.6,7.4,0.6,11.1 C231.4,108.3,231.5,118.9,230.9,129.4z"></path>
 <path d="M105.1,129.8c0-18.5,0-37,0-55.6c0-1.1-0.1-2.2-0.1-3.3c-3.8,0-7.2,0-10.7,0c0,1.6,0,2.8,0,4.1c0,19.3,0,38.5,0,57.8 c0,5.3-2.2,7.6-7,7.7c-5.3,0.1-7.5-2-7.8-7.3c-0.1-1.2,0-2.3,0-3.5c0-18.3,0-36.6,0-54.9c0-1.2,0-2.5,0-4.2c-3.1,0-5.7,0.1-8.2,0 c-2.2-0.1-3,0.6-2.9,2.8c0.1,6.2,0,12.5,0,18.7c0,12.8-0.1,25.6,0,38.4c0.1,10.5,4.4,16.3,13.4,18c2.6,0.5,5.3,0.3,7.9,0.3 c8.3-0.3,14-5.3,15.3-13.4C105.2,133.6,105.1,131.7,105.1,129.8z"></path>
 <path d="M188.4,139.2c-6.1,0-11.9,0-18.1,0c0-23,0-45.6,0-68.4c-3.7,0-7,0-10.6,0c0,26,0,51.6,0,77.3c9.7,0,19.1,0,28.7,0 C188.4,145.2,188.4,142.4,188.4,139.2z"></path>
 <path d="M126.6,81.5c0.1,21.1,0,42.1,0,63.2c0,1.1,0,2.2,0,3.4c3.8,0,7.2,0,10.7,0c0-26,0-51.8,0-78.2c-3.1,2.4-5.6,4.6-8.3,6.5 C127.2,77.7,126.6,79.3,126.6,81.5z"></path>
 <path d="M238.9,171.4c-2.6-0.6-4.6-0.6-5.2,2.8c-0.4,2.2-1.9,4.3-3.1,6.9c-1.2-2.6-2.5-4.6-2.9-6.7c-0.7-3.5-2.6-3.7-5.1-3.1 c1.6,5,0.2,9.5-1.7,14c1.3,0,2.6,0,4.2,0c-3.8-3.2-0.5-6.5-1-9.7c0.3-0.1,0.5-0.1,0.8-0.2c1.6,3.3,3.1,6.6,4.8,10.1 c1.7-3.7,3.1-6.9,4.6-10.2c0.3,3.4,3.2,6.7-0.2,9.8c2.1,0,4.1,0,6.3,0C237.8,182.5,236.9,173.5,238.9,171.4z"></path>
 <path d="M97.7,171.4c-1.8,0-3.3,0-4.4,0c-1.4,3.3-2.8,6.3-4.4,9.9c-1.7-3.9-3-7-4.2-9.9c-1.5,0-2.9,0-4.7,0 c3.2,2.2,1.4,4.7,1.2,6.9c-0.2,2.4-1.1,4.7-1.6,6.9c1,0,2.3,0,3.9,0c-2.4-2-2.5-5.7-0.3-10c1.6,3.4,3.1,6.7,4.9,10.4 c1.6-3.6,3.1-6.9,4.7-10.5c1.9,5.2,1.8,8-0.2,10.2c1.1,0.1,2,0.2,2.9,0.1c1,0,2-0.1,3.2-0.2C95.9,182,95.3,173.5,97.7,171.4z"></path>
 <path d="M170.3,179.1c0.3,0.1,0.6,0.1,0.9,0.2c0.8-1.7,2.4-3.6,2.2-5.2c-0.4-2.8-3.3-2.8-5.6-2.9c-2.4-0.1-4.7,0-7.5,0 c2.5,2.6,2.6,11.4,0.4,14.1c2.1,0,4.1,0,5.4,0c-0.4-2-0.8-3.9-1.2-5.8c0.4-0.2,0.9-0.4,1.3-0.7c1.2,1.5,2.6,3,3.7,4.6 c1.4,2,3,2.6,5.3,1.8c-1-1.1-1.9-2-2.6-2.9C171.9,181.3,171.1,180.1,170.3,179.1z M165.4,178.1c0-2,0-3.8,0-5.8 c2.4-0.1,4.9-0.4,5,2.8C170.5,178.4,167.9,178.1,165.4,178.1z"></path>
 <path d="M191.2,171.7c-3.3-0.5-6.8-0.5-10.9-0.7c3,2.6,3,12,0.2,14.7c4-0.3,7.5-0.2,10.9-0.8c3.1-0.5,5.1-3.8,5-6.9 C196.3,174.9,194.4,172.3,191.2,171.7z M191.9,182.1c-0.3,1.2-2.9,2.2-4.5,2.3c-2.4,0.1-1.6-2.2-1.7-3.7c-0.1-2.7,0-5.4,0-8.1 c0.3-0.3,0.6-0.6,1-1c1.8,1,4.5,1.6,5.2,3C192.7,176.8,192.6,179.7,191.9,182.1z"></path>
 <path d="M146.6,184c-0.5,0-0.8-3.4-1.5-6.2c2.9,0.9,4.8,1.4,6.7,2c0-1.1,0-2.6,0-3.6c-2,0.5-3.9,1-5.9,1.5c0-2.2,0-3.8,0-6.1 c2.6,0.7,4.9,1.4,7.3,2c0-0.4,0.1-1.1,0.2-2.3c-4.3,0-8.3,0-12.6,0c2.6,2.2,2.6,11.7-0.1,14.1c3.7,0,7.1-0.1,10.4,0 c3,0.2,3.1-1.4,2.9-2.8C151.4,183.3,149,184.1,146.6,184z"></path>
 <path d="M37.7,171.4c4.4,2.3,2,5.8,2.8,8.5c-0.3,0.1-0.5,0.2-0.8,0.4c-2.1-2.5-4.3-4.9-6.2-7.4c-1.6-2-3.3-2-5.6-1.2 c3.3,2.5,3.2,11.2,0.1,13.6c1.9,0,3.7,0,5.9,0c-4.5-2.8-1.9-6.6-2.1-9.9c3,3.5,6,7,9.3,10.8c1.3-5.3-1.6-10.4,1.9-14.7 C41.5,171.4,39.9,171.4,37.7,171.4z"></path>
 <path d="M114.1,179c-1.4-1.2-3.4-1.8-4.8-3c-0.8-0.7-1-2.1-1.5-3.2c1.4,0,2.9-0.4,4.2,0c0.8,0.3,1.3,1.6,1.9,2.5 c0.3-0.1,0.6-0.2,0.9-0.3c-0.4-1-0.6-2.9-1.1-3c-2.4-0.3-5.1-0.7-7.2,0.1c-2.5,0.9-2.5,4-0.4,5.7c1.2,1,2.8,1.4,4.1,2.4 c1,0.8,1.8,1.9,2.3,3c0.1,0.2-1.3,1.7-1.8,1.7c-1.3-0.2-2.7-0.8-3.8-1.5c-0.6-0.4-0.9-1.3-1.4-2c-0.4,0.2-0.7,0.3-1.1,0.5 c0.5,1.1,0.8,3.1,1.5,3.2c2.4,0.4,5.1,0.7,7.3,0.1C116.1,184.2,116.5,181,114.1,179z"></path>
 <path d="M68.1,173.1c-0.4-0.9-1.6-1.5-2.4-2.2c-2.3,5.3-4.2,9.9-6.1,14.4c0.9,0,2.4,0,3,0c0.1-1.8,0-4.4,0.3-4.5 c1.7-0.3,4-0.6,5.3,0.3c1.3,0.8,1.9,3-0.6,4.2c2,0,4,0,6,0c-0.7-1.3-1.4-2.3-1.9-3.4C70.5,179,69.4,176,68.1,173.1z M63.4,178.9 c0.6-1.7,1.2-3.1,1.9-5.1c0.8,1.9,1.4,3.4,2.2,5.1C65.9,178.9,64.9,178.9,63.4,178.9z"></path>
 <path d="M207.5,170.9c-2.3,5.3-4.3,10-6.3,14.5c1,0,2.4,0,4.7,0c-3-1.6-2.7-3.7-1.1-4.7c1.2-0.8,3.6-0.7,4.9,0.1 c0.8,0.5,0.5,2.9,0.8,4.7c1,0,2.9,0,4.6,0c-1.8-4.2-3.4-8.3-5.2-12.3C209.5,172.2,208.3,171.6,207.5,170.9z M205.2,178.9 c0.6-1.7,1.1-3.1,1.9-5.1c0.8,1.9,1.5,3.4,2.2,5.1C207.8,178.9,206.8,178.9,205.2,178.9z"></path>
 <path d="M123.2,171.2c-2.3,0.1-2.5,0.7-1.4,2.9c1.4-0.7,2.8-1.4,4.5-2.1c0.7,8.3,0.5,11-1.2,13.4c1.9,0,3.8,0,5.6,0 c-2.7-4.2-1-8.6-1.5-13.8c2.2,1.2,3.6,2,5.2,2.8c0-1.1,0-2,0-3.2C130.5,171.2,126.8,171.1,123.2,171.2z"></path>
 <path d="M21.5,171.3c-2.2,0-4.2,0-6.8,0c2.7,2.4,2.8,11.4,0.5,14c2.1,0,4.1,0,6.4,0C19,183.2,19,173.8,21.5,171.3z"></path>
 <path d="M165.4,172.3c0,2,0,3.8,0,5.8"></path>
</symbol>
<symbol id="client-philips" viewBox="0 0 256 256">
 <path d="M87.5,72.9c0-2.3-1.3-3.6-4.1-3.6c-0.3,0-0.3,0-0.7,0v7.5h0.7C86.3,76.9,87.5,75.3,87.5,72.9z"></path>
 <path d="M128.3,51.8c-35.6,0-60.1,3.3-60.1,3.3v89.4c0,33.7,26.8,59.9,59.9,59.9c32.8,0,59.9-25.9,59.9-60.6V55.1 C187.9,55.1,164.1,51.8,128.3,51.8z M148.5,66.3c1.9-0.2,4.6-0.4,6.8-0.4c5.7,0,9.2,1.8,9.2,6.9c0,4.7-3.3,7.3-8.5,7.3h-1.9v4.3 h-5.5L148.5,66.3L148.5,66.3z M138.8,66.3h5.5v18.2h-5.5V66.3z M125.9,66.3h5.5v14.6h5.3l-0.8,3.7h-10 C125.9,84.6,125.9,66.3,125.9,66.3z M116.2,66.3h5.5v18.2h-5.5V66.3z M128,92.5c28.7,0,45.7,21.7,49.9,37.5 c-4.4-2.9-13.3-6.9-24-6.9c-21.6,0-32.6,13.8-51.5,17.3l0,0l0,0l0,0l1.4-11.8c0.8-5.8,1.6-7.3,6.5-8.1l13.9-1.9v-0.9l-8.9-1.1 l0.9-6.8c0.2-2,1.1-2.9,3.7-3.2l7.3-1v-0.5l-7.7-1c-2.2-0.3-2.9-1.3-3.2-3.3l-0.9-6.9C115.3,94.1,120.6,92.5,128,92.5z M103.6,105.9 l6.8,1c2.2,0.2,3,1.3,3.3,3.8l0.8,6l-5.7-0.8c-2.7-0.6-4.2-2.4-4.7-5.9L103.6,105.9z M113.7,101.2c-0.4,2.2-1.3,2.9-3.7,3.2 l-6.5,0.8l-0.7-6.1c3.2-1.8,7.2-3.6,11.8-4.7L113.7,101.2z M95.2,66.3h5.5v7.3h5.8v-7.3h5.5v18.2h-5.5v-7.1h-5.8v7.2h-5.5V66.3z M100.9,100.2l-1.3,9.7c-0.3,2.1-0.5,3.1-1.6,4.4c-1,1.1-2.5,1.5-4.3,1.8l-10,1.3C87.5,111.1,93.2,104.9,100.9,100.2z M76.9,66.3 c1.9-0.2,4.6-0.4,6.8-0.4c5.7,0,9.2,1.8,9.2,6.9c0,4.7-3.3,7.3-8.5,7.3h-2v4.3h-5.5V66.3z M82.6,119.3l10.8,1.4 c2,0.2,3.5,0.7,4.5,1.8c1,1.1,1.4,1.7,2,5.7l1.6,12.6c0,0-3.3,0.6-7.3,0.6c-7.1,0-13.5-1.8-17.5-3.4l0,0 C77.4,130.7,79.4,125.3,82.6,119.3z M144.7,172.4c4.4,0.5,6.4,2,6.9,6.2l1.5,11.1c-4.3,2.6-13.5,6.5-25.1,6.5 c-22,0-42.8-13.7-49.9-37.8c6.4,4,15.4,6.9,24.2,6.9c22.9,0,34-14.6,51.2-17.6l-1.8,14.2c-0.7,3.7-1.6,5.2-6,6l-14,1.8v1 L144.7,172.4z M154.9,188.9L154.9,188.9L154.9,188.9L154.9,188.9l1.1-8.9c0.7-5,1.6-6.9,6.4-7.4l10.1-1.3 C167.4,179.5,161.6,184.5,154.9,188.9z M173.5,169.5l-10.2-1.3c-5.2-0.7-6.5-1.9-7.3-7l-1.7-13.5c0,0,3.5-0.6,7.4-0.6 c6,0,14,1.9,17.8,3.6C178.6,156.9,177.5,162,173.5,169.5z M158.8,139.2c-24.4,0-34.3,18-58.8,18c-9.5,0-17.3-2.4-23.6-6.3 c-0.2-1.5-0.3-4.4-0.3-6.4c4.5,2.3,11.2,5.1,21.1,5.1c24.1,0,35-18,58.7-18c9.7,0,18,2.8,23.6,6.3c0.2,2.1,0.3,4.3,0.4,6.4 C173.6,141,166.9,139.2,158.8,139.2z M172.1,84.9c-1.8,0-4.1-0.3-5.8-0.9l-0.6-4.2c1.7,0.8,4.5,1.5,6.4,1.5c2,0,2.9-0.6,2.9-1.7 c0-2.9-8.7-1.7-8.7-8.1c0-3.8,3-5.5,7.5-5.5c2.4,0,3.7,0.2,5.1,0.6l0.5,4c-1.3-0.6-3.2-0.9-5-0.9c-1.6,0-2.6,0.5-2.6,1.5 c0,2.9,8.7,1.8,8.7,7.8C180.6,83.4,176.7,84.9,172.1,84.9z"></path>
 <path d="M159,72.9c0-2.3-1.3-3.6-4-3.6c-0.3,0-0.3,0-0.7,0v7.5h0.7C157.9,76.9,159,75.3,159,72.9z"></path>
 <path d="M131.5,183.4l5.8,0.7c1.9,0.2,2.6,1.1,2.8,2.9l0.7,5.5h0.4l0.7-5.7c0.3-2.4,1.2-2.5,2.9-2.9l5.6-0.7v-0.4l-6-0.7 c-1.6-0.2-2.2-1.1-2.4-2.4l-0.7-6h-0.5l-0.8,6.1c-0.3,1.5-0.9,2-2.4,2.4l-6,0.8L131.5,183.4L131.5,183.4z"></path>
</symbol>
<symbol id="client-tudelft" viewBox="0 0 256 256">
 <path d="M78.1,165.1c6,0,9.2-3.9,9.2-9.4v-28.4h12.8v28.9C99.8,168.9,89.7,174,78.1,174c-11.6,0-21.7-5.1-21.9-17.8v-28.9H69v28.4 C69,161.2,72.1,165.1,78.1,165.1z M23.5,173h12.8v-36.9h14.2v-8.9H9.3v8.9h14.2V173z M53.8,105.1c-3.1,1-6.3,0.2-6.3-3.9 c0-6.3,14.7-11.6,16.9-17.1c0.5-1.4,0.5-2.4,0-2.4c-0.5,0,0,0.7-1.2,1.7c-6,6-16.4,6-24.3,9.6c-5.1,2.4-20.2,9.4-16.9,25.3 c0.2,0.7,0.7,3.4,1,3.4c0.7-0.2,0.7-1.7,0.7-3.6c0-9.4,11.1-12,14.7-18.3c0.5-0.7,1.2-1.7,1.4-1.2v1.2c-1.2,5.1-6.5,8.4-5.1,12 c1.9,4.8,7.7,1.2,9.4-1.9c0.5-0.7,0.7-1.4,1-1.2c0.2,0,0.2,1,0,1.9c-1,5.5-2.2,8.4-6.3,11.6c-1.2,1-3.4,1.2-3.1,1.9 c0,0.2,1,0.2,1.7,0c10.6-0.7,19.5-13.2,21.9-21.4c0.2-0.5,0.2-1.2,0-1.4c-0.2-0.2-0.7,0.2-1.2,0.7 C57.2,103.4,55.5,104.6,53.8,105.1L53.8,105.1z M162.2,154c0-5.1,3.1-9.4,7.9-9.4c5.8,0,8.2,4.1,8.2,9.4H162.2z M184.6,158.3v-2.9 c0-8.9-5.1-14.9-14-14.9c-10.1,0-14.7,7.7-14.7,17.1c0,9.4,4.1,16.6,14.2,16.6c7.7,0,13.2-3.6,14.2-10.8h-6.5 c-0.7,4.6-3.1,6.5-7.7,6.5c-6.3,0-8.2-5.5-8.2-11.3L184.6,158.3L184.6,158.3z M192.1,127.3h6V173h-6V127.3z M216.9,173v-27.7h7.5 v-4.1h-7.5v-5.1c0-3.6,1.7-4.3,5.3-4.3c1,0,1.9,0.2,3.1,0.2V127c-1.4-0.2-2.9-0.7-4.3-0.7c-5.8,0-9.9,2.9-9.9,8.9v6h-6.3v4.1h6.3 V173H216.9z M227.7,141.2v4.1h5.5v20.5c0,4.3,0,8.2,8.9,8.2c1.4,0,2.6-0.2,4.1-0.5v-4.6c-1,0.2-2.2,0.5-3.1,0.5 c-2.2,0-3.9-1.2-3.9-3.4v-20.5h7.5v-4.1h-7.5v-8.7l-6,1.7v6.7H227.7z M112.8,173h15.7c19.5,0,21.7-16.6,21.7-22.9 s-2.2-22.9-21.7-22.9h-15.7V173z M119.1,132.8h9.4c10.6,0,14.9,7.9,14.9,17.3c0,9.4-4.3,17.4-14.9,17.4h-9.4V132.8L119.1,132.8z"/>
</symbol>
<symbol id="client-wageningen" viewBox="0 0 256 256">
 <path d="M97.4,108.9L93,121h-1.8l-3.1-8.6c-1,2.8-2.1,5.7-3.1,8.6h-1.7l-4.4-12.1h2.4l2.9,8l2.9-8h2.1l2.9,8l2.9-8H97.4L97.4,108.9 z"/>
 <path d="M132.3,112.2h-2.2v-1c0-0.1,0-0.1-0.1-0.1h-7.4c-0.1,0-0.1,0-0.1,0.1v7.4c0,0.1,0,0.1,0.1,0.1h7.4c0.1,0,0.1,0,0.1-0.1 v-2.3h-2.7v-2.2h5v4.5c0,1.3-1.1,2.3-2.4,2.3h-7.4c-1.3,0-2.3-1-2.3-2.3v-7.4c0-1.3,1-2.3,2.3-2.3h7.4c1.3,0,2.4,1,2.4,2.3V112.2z" />
 <polygon points="150.5,111.1 141.6,111.1 141.6,113.8 148.7,113.8 148.7,116 141.6,116 141.6,118.8 150.5,118.8 150.5,121 139.4,121 139.4,108.9 150.5,108.9 "/>
 <polygon points="167,108.9 169.2,108.9 169.2,121 166.8,121 159.3,112.1 159.3,121 157.2,121 157.2,108.9 159.5,108.9 167,117.7 "/>
 <rect x="175.7" y="108.9" width="2.2" height="12.1"/>
 <polygon points="194.6,108.9 196.8,108.9 196.8,121 194.4,121 187,112.1 187,121 184.8,121 184.8,108.9 187.2,108.9 194.6,117.7 "/>
 <path d="M215.5,112.2h-2.2v-1c0-0.1,0-0.1-0.1-0.1h-7.4c-0.1,0-0.1,0-0.1,0.1v7.4c0,0.1,0,0.1,0.1,0.1h7.4c0.1,0,0.1,0,0.1-0.1 v-2.3h-2.7v-2.2h5v4.5c0,1.3-1.1,2.3-2.4,2.3h-7.4c-1.3,0-2.3-1-2.3-2.3v-7.4c0-1.3,1-2.3,2.3-2.3h7.4c1.3,0,2.4,1,2.4,2.3V112.2 L215.5,112.2z"/>
 <polygon points="233.4,111.1 224.5,111.1 224.5,113.8 231.7,113.8 231.7,116 224.5,116 224.5,118.8 233.4,118.8 233.4,121 222.3,121 222.3,108.9 233.4,108.9 "/>
 <polygon points="249.7,108.9 251.9,108.9 251.9,121 249.5,121 242.1,112.1 242.1,121 239.9,121 239.9,108.9 242.3,108.9 249.7,117.7 "/>
 <path d="M112,111.3c-0.5-1.4-1-2.3-2.3-2.3h-3.6c-1.3,0-1.9,0.9-2.3,2.3l-3.5,9.8h2.3l1.4-4.1h7.8l1.5,4.1h2.2L112,111.3z M104.7,114.7l1.2-3.5c0-0.1,0-0.1,0.1-0.1h3.7c0.1,0,0.1,0,0.1,0.1l1.2,3.5H104.7z"/>
 <path d="M85.8,130.5h1.1v5.9c0,0.7-0.6,1.3-1.3,1.3H81c-0.7,0-1.3-0.6-1.3-1.3v-5.9h1.1v5.9c0,0.1,0.1,0.2,0.2,0.2h4.5 c0.1,0,0.2-0.1,0.2-0.2L85.8,130.5L85.8,130.5z"/>
 <polygon points="95.6,130.5 96.6,130.5 96.6,137.6 95.4,137.6 90.6,131.9 90.6,137.6 89.5,137.6 89.5,130.5 90.7,130.5 95.6,136.2 "/>
 <rect x="99.3" y="130.5" width="1.1" height="7.2"/>
 <polygon points="109.7,130.5 110.9,130.5 106.8,137.6 105.7,137.6 101.6,130.5 102.8,130.5 106.2,136.4 "/>
 <polygon points="118.4,131.5 112.9,131.5 112.9,133.5 117.3,133.5 117.3,134.6 112.9,134.6 112.9,136.5 118.4,136.5 118.4,137.6 111.8,137.6 111.8,130.5 118.4,130.5 "/>
 <path d="M128.1,133.8c0,0.7-0.6,1.3-1.3,1.3h-0.7l2,2.4v0.2h-1.3l-2.1-2.6h-2.4c-0.1,0-0.2,0-0.2,0v2.6H121v-7.2h5.9 c0.7,0,1.3,0.6,1.3,1.3V133.8L128.1,133.8z M122.1,131.6v2.4h4.8c0.1,0,0.2-0.1,0.2-0.2v-2c0-0.1-0.1-0.2-0.2-0.2L122.1,131.6 L122.1,131.6z"/>
 <path d="M186.3,133.8c0,0.7-0.6,1.3-1.3,1.3h-0.7l2,2.4v0.2h-1.3l-2.1-2.6h-2.4c-0.1,0-0.2,0-0.2,0v2.6h-1.1v-7.2h5.9 c0.7,0,1.3,0.6,1.3,1.3V133.8L186.3,133.8z M180.3,131.6v2.4h4.8c0.1,0,0.2-0.1,0.2-0.2v-2c0-0.1-0.1-0.2-0.2-0.2L180.3,131.6 L180.3,131.6z"/>
 <path d="M233,133.8c0,0.7-0.6,1.3-1.3,1.3H231l2,2.4v0.2h-1.3l-2.1-2.6h-2.4c-0.1,0-0.2,0-0.2,0v2.6h-1.1v-7.2h5.9 c0.7,0,1.3,0.6,1.3,1.3V133.8L233,133.8z M226.9,131.6v2.4h4.8c0.1,0,0.2-0.1,0.2-0.2v-2c0-0.1-0.1-0.2-0.2-0.2L226.9,131.6 L226.9,131.6z"/>
 <path d="M137.8,132.2h-1.1v-0.4c0-0.1-0.1-0.2-0.2-0.2H132c-0.1,0-0.2,0.1-0.2,0.2v1.5c0,0.1,0.1,0.2,0.2,0.2h4.5 c0.7,0,1.3,0.6,1.3,1.3v1.5c0,0.7-0.6,1.3-1.3,1.3H132c-0.7,0-1.3-0.6-1.3-1.3v-0.4h1.1v0.4c0,0.1,0.1,0.2,0.2,0.2h4.5 c0.1,0,0.2-0.1,0.2-0.2v-1.5c0-0.1-0.1-0.2-0.2-0.2H132c-0.7,0-1.3-0.6-1.3-1.3v-1.5c0-0.7,0.6-1.3,1.3-1.3h4.5 c0.7,0,1.3,0.6,1.3,1.3V132.2z"/>
 <rect x="140.5" y="130.5" width="1.1" height="7.2"/>
 <polygon points="150.4,130.5 150.4,131.5 147.4,131.5 147.4,137.6 146.3,137.6 146.3,131.5 143.3,131.5 143.3,130.5 "/>
 <polygon points="158.8,130.5 155.5,134.9 155.5,137.6 154.5,137.6 154.5,134.9 151.2,130.5 152.4,130.5 155,133.7 157.6,130.5 "/>
 <polygon points="195.5,131.5 190,131.5 190,133.5 194.4,133.5 194.4,134.6 190,134.6 190,136.5 195.5,136.5 195.5,137.6 188.9,137.6 188.9,130.5 195.5,130.5 "/>
 <path d="M204.8,132.2h-1.1v-0.4c0-0.1-0.1-0.2-0.2-0.2H199c-0.1,0-0.2,0.1-0.2,0.2v1.5c0,0.1,0.1,0.2,0.2,0.2h4.5 c0.7,0,1.3,0.6,1.3,1.3v1.5c0,0.7-0.6,1.3-1.3,1.3H199c-0.7,0-1.3-0.6-1.3-1.3v-0.4h1.1v0.4c0,0.1,0.1,0.2,0.2,0.2h4.5 c0.1,0,0.2-0.1,0.2-0.2v-1.5c0-0.1-0.1-0.2-0.2-0.2H199c-0.7,0-1.3-0.6-1.3-1.3v-1.5c0-0.7,0.6-1.3,1.3-1.3h4.5 c0.7,0,1.3,0.6,1.3,1.3V132.2z"/>
 <polygon points="214,131.5 208.5,131.5 208.5,133.5 212.9,133.5 212.9,134.6 208.5,134.6 208.5,136.5 214,136.5 214,137.6 207.5,137.6 207.5,130.5 214,130.5 "/>
 <path d="M220.8,130.5c0.7,0,1.1,0.5,1.4,1.3l2.1,5.9h-1.1l-1-2.5h-5l-0.9,2.5h-1.1l2.1-5.9c0.3-0.8,0.6-1.3,1.3-1.3H220.8z M222,134.1l-0.9-2.3c0-0.1-0.1-0.2-0.2-0.2h-2.1c-0.1,0-0.2,0.1-0.2,0.2l-0.9,2.3H222z"/>
 <path d="M236.7,131.5c-0.1,0-0.2,0.1-0.2,0.2v4.5c0,0.1,0.1,0.2,0.2,0.2h5.8v1.1h-5.8c-0.7,0-1.3-0.6-1.3-1.3v-4.5 c0-0.7,0.6-1.3,1.3-1.3h5.8v1.1H236.7z"/>
 <polygon points="252,130.5 252,137.6 250.9,137.6 250.9,134.6 245.7,134.6 245.7,137.6 244.7,137.6 244.7,130.5 245.7,130.5 245.7,133.5 250.9,133.5 250.9,130.5 "/>
 <path d="M172.7,136.6l-1.2-0.8v-2.1h-1.1v1.4c0,0-3.9-2.4-3.9-2.5l0,0c-0.1,0-0.1-0.1-0.1-0.2v-0.7c0-0.1,0.1-0.2,0.2-0.2h2.6 c0.1,0,0.2,0.1,0.2,0.2v0.5h1.1v-0.7c-0.1-0.6-0.7-1.1-1.3-1.1h-2.6c-0.7,0-1.3,0.6-1.3,1.3v0.8c0,0.4,0.2,0.5,0.5,0.7h-0.2 c-0.7,0-1.3,0.2-1.3,0.9v2.2c0,0.7,0.6,1.3,1.3,1.3h4.5c0.6,0,1-0.3,1.2-0.8l0,0l1.3,0.8L172.7,136.6L172.7,136.6z M170.3,136.3 c0,0.1-0.1,0.2-0.2,0.2h-4.5c-0.1,0-0.2-0.1-0.2-0.2v-2.1c0,0,0,0,0-0.1c0-0.1,0.1-0.1,0.2-0.1h0.5h0.7l3.4,2.1V136.3L170.3,136.3z "/>
 <path d="M71.9,137.7c0.7-0.6-1.5-1.4-1.5-1.4s-2.4-1.1-11.9-1.9v3.3h-2.2H43.9v-3.8c-2.9-0.1-8.7,0-12.7,0v3.8h-10h-1h-3.6v-3.3 c-6.4,0.4-10.5,1.2-10.5,1.2s-0.7,0.6-0.8,0.7c-0.8,0.5,0,0.7,0.5,1c0.2,0.1,0.2,0.2,0.2,0.4c0,0.2-0.5,0.3-0.5,0.6 c0.2,0.6,1.1,0,1,0.8c-0.1,1-2.2,0.4-2.4,1.3c-0.2,0.7,0.8,0,0.8,1.4c0,1.4,1,2.7,3.7,3.4c0.7,0.2,3.7,0.1,2.1,1 c-0.2,0.1-0.8,0.1-1,0.1c-0.3,0-1,0-1.2,0.3c-0.3,0.4,0.3,0.4,0.2,0.8c-0.4,0-1.1,0-0.8,0.7c0.2,0.3,0.7,0.5,1.1,0.5 c1.7-0.1,1.5,0,2,0.1c-1,0.2-1.8,1.2,1.8,1.1c0.1,0.5,1,0.5,1.4,0.4c22.5-5,32.2-2.9,32.3-4.3c-0.3-0.7-3.5-0.6-4-0.6 c-2.1-0.1-6.4,0.1-6.2-0.4c0.1-1.2,22.9-0.9,20.2-0.2c-0.1,0-1.7,0.3-1.9,0.4c-1.2,0.7,3.5,0.8,4,0.8c0.6,0,2,0,1.7,0.6 c-0.1,0.2-1.8,0-1.7,0.2c0,0.2,1,0.1,1.1,0.2c0.7,1.1-8.4,0.5-13.1,0.7c-1.4,0-4.1,0.2-5.5,0.4c-2.4,0.3-0.4,0.9,3.3,1.2 c2,0.2,12.2,1,20.8,2.1c2.6,0.5,3.3-0.8,2.8-1.2c-0.3-0.2,1.1-0.9-0.5-1.6c-1-0.4-0.2-0.6-0.1-0.6c0.2,0,2.2,0.5,1.4-0.2 c-0.5-0.5,0.3-0.2,0.5-0.2c1.9-0.1,1.4-0.9,1.6-0.7c-0.6-0.6,1-1,0.6-2.2c-0.1-0.4-2.3-0.3-0.9-0.6c0.2,0,2.2,0,0.3-1.1 c-0.4-0.2-0.8-0.2-1.4-0.4c-1.4-0.3-0.3-1,0.3-0.9c0.8,0.1,1.7-0.4,1.5-1.2C71.2,139.5,70.8,138,71.9,137.7"/>
 <polygon points="18.6,104.4 18.6,137.7 31.1,137.7 31.1,117 43.8,117 43.8,137.7 56.3,137.7 56.3,104.4 "/>
</symbol>

 <symbol id="client-volksbank" viewBox="0 0 254 31">
 <path d="M151.093 29.258c1.599-1.21 2.443-2.946 2.443-5.022 0-2.097-.786-3.666-2.404-4.798-1.418-.991-3.279-1.514-4.92-1.975-2.362-.665-4.4-1.238-4.4-2.957 0-1.234 1.017-2.48 3.292-2.48 1.495 0 2.772.585 3.597 1.645.224.288.565.455.934.455.205 0 .411-.054.593-.156l2.82-1.579c-1.536-2.872-4.426-4.516-7.944-4.516-2.186 0-4.179.642-5.61 1.81-1.503 1.226-2.297 2.924-2.297 4.91 0 2.023.778 3.547 2.381 4.66 1.407.977 3.258 1.51 4.892 1.98 2.388.686 4.451 1.28 4.451 3 0 1.619-1.367 2.547-3.752 2.547-2.405 0-4.18-1.136-4.886-3.12l-3.91 2.25c1.455 3.235 4.657 5.088 8.796 5.088 2.335 0 4.438-.619 5.924-1.742zm24.12-9.82c0-4.08-2.94-7.022-6.833-7.022-3.892 0-6.834 2.941-6.834 7.022s2.942 7.02 6.834 7.02c3.893 0 6.834-2.939 6.834-7.02zm4.671 0c0 6.516-4.844 11.562-10.747 11.562-3.416 0-5.947-1.425-7.59-3.774v2.743c0 .364-1.046.658-2.335.658-1.29 0-2.335-.294-2.335-.658V3.423c0-1.89 1.51-3.423 3.372-3.423h1.297v11.648c1.644-2.347 4.175-3.773 7.591-3.773 5.903 0 10.747 5.046 10.747 11.563zm41.482-11.563c-2.962 0-5.276 1.118-6.726 3.4V8.467h-3.372c-.717 0-1.298.59-1.298 1.316V29.97c0 .364 1.045.658 2.335.658s2.335-.294 2.335-.658v-11.3c0-4.498 2.422-6.34 5.514-6.34 2.92 0 4.822 1.776 4.822 5.067V29.97h.001c0 .364 1.045.658 2.335.658s2.335-.294 2.335-.658V16.936c0-5.727-3.46-9.061-8.281-9.061zM106.694 3.423v26.546c0 .364 1.045.658 2.335.658s2.335-.294 2.335-.658V0h-1.296c-1.863 0-3.374 1.533-3.374 3.423zm19.61 15.773l9.515-10.729h-4.384c-.87 0-1.697.38-2.272 1.043l-7.392 8.524a1.772 1.772 0 0 0 .004 2.322l7.864 9.017c.47.537 1.745 1.254 3.702 1.254.707 0 1.341-.086 1.779-.219.496-.152.672-.372.597-.458l-9.413-10.754zM119.428 0h1.298v29.97c0 .363-1.047.657-2.336.657-1.29 0-2.335-.294-2.335-.658V3.423c0-1.89 1.51-3.423 3.373-3.423zm125.058 19.196L254 8.467h-4.383c-.87 0-1.699.38-2.273 1.043l-7.392 8.524a1.773 1.773 0 0 0 .004 2.322l7.864 9.017c.47.537 1.745 1.254 3.702 1.254.707 0 1.341-.086 1.78-.219.494-.152.671-.372.596-.458l-9.412-10.754zM237.609 0h1.298v29.97c0 .363-1.046.657-2.336.657-1.29 0-2.335-.294-2.335-.658V3.423c0-1.89 1.51-3.423 3.373-3.423zM18.338 19.438c0-4.08-2.942-7.022-6.834-7.022-3.893 0-6.833 2.941-6.833 7.022s2.94 7.02 6.833 7.02c3.892 0 6.834-2.939 6.834-7.02zM21.71 0h1.298v29.97c0 .363-1.046.657-2.336.657-1.29 0-2.334-.294-2.334-.658v-2.743C16.693 29.575 14.163 31 10.747 31 4.844 31 0 25.954 0 19.438 0 12.92 4.844 7.875 10.747 7.875c3.416 0 5.946 1.426 7.59 3.773V3.423c0-1.89 1.51-3.423 3.373-3.423zm76.657 19.438c0-3.993-2.94-6.934-6.768-6.934-3.784 0-6.725 2.94-6.725 6.934 0 3.993 2.94 6.933 6.725 6.933 3.828 0 6.768-2.94 6.768-6.933zm4.67 0C103.038 25.954 97.936 31 91.6 31s-11.396-5.046-11.396-11.562c0-6.517 5.06-11.563 11.396-11.563 6.336 0 11.439 5.046 11.439 11.563zm97.572 0c0-4.08-2.941-7.022-6.855-7.022-3.871 0-6.812 2.941-6.812 7.022s2.94 7.02 6.812 7.02c3.914 0 6.855-2.939 6.855-7.02zm1.297-10.97h3.374v21.501h-.001c0 .364-1.046.658-2.335.658-1.29 0-2.335-.294-2.335-.658v-2.743c-1.644 2.327-4.196 3.774-7.612 3.774-5.882 0-10.725-5.046-10.725-11.562 0-6.517 4.843-11.563 10.725-11.563 3.416 0 5.968 1.448 7.612 3.773V9.783c0-.727.58-1.316 1.297-1.316zM63.545 10.48a3.03 3.03 0 0 0-2.842-2.013h-4.388c.93 0 2.058 1.736 2.7 3.404l6.81 17.7c.193.504.673.837 1.208.837h3.61c.535 0 1.11-.35 1.21-.838 2.457-12.197 7.761-22.3 14.872-23.895-4.627-.386-8.345 1.032-10.997 3.648-2.507 2.471-4.316 5.737-7.312 14.619L63.545 10.48zm-19.457 7.136c-.67-3.752-3.373-5.397-6.163-5.397-3.524 0-5.946 2.085-6.573 5.397h12.736zm-12.693 3.862c.757 3.423 3.447 5.156 6.804 5.156 1.964 0 3.718-.678 4.817-1.68h5.294C47.611 27.033 44.446 31 38.272 31c-7.114 0-11.722-5.002-11.722-11.562 0-6.517 4.608-11.563 11.375-11.563 5.563 0 10.848 4.289 10.848 11.585v.793c0 .691-.61 1.225-1.291 1.225H31.395z" fill-rule="evenodd"></path>
</symbol>

 <symbol id="client-regiobank" viewBox="0 0 256 256">

  <path d="M17.738,127.999c1.901,0,4.1-1.649,4.1-4.18c0-5.359,4.409-8.531,8.348-8.531c0.836,0,1.512-0.161,1.512-1.168
			c0-1.008-1.867-1.798-1.867-5.955c0-4.363,3.71-8.382,8.566-8.382c4.282,0,6.596,2.703,7.386,3.768
			c0.297,0.401,0.595,0.493,0.881,0.493c0.515,0,1.077-0.401,1.077-1.455c0-2.851,1.718-7.432,6.642-8.76
			c5.05-1.363,10.065,1.958,11.394,3.413c0.058,0.068,0.263,0.229,0.481,0.229c0.171,0,0.412-0.035,0.572-0.286
			c2.771-4.295,10.318-17.715,12.757-21.094c1.271-1.752,2.645-2.256,5.21-2.806c6.275-1.351,13.421-2.531,25.651-3.562
			c1.431-0.126,2.279,0.149,3.447,1.363c1.225,1.271,16.719,21.505,16.719,21.505l17.978-51.76l11.487,41.259
			c0.309,1.008,1.064,1.111,1.488,1.088c2.587-0.172,18.562-3.138,23.509-3.264c0.607-0.023,0.745,0.252,0.939,0.871
			c1.879,5.852,7.329,25.617,7.811,27.277c0.183,0.676,0.744,1.397,2.301,0.996c0.664-0.16,22.136-6.081,22.983-6.264
			c0.881-0.195,1.477-0.057,2.038,0.447c0.916,0.836,12.426,11.084,14.463,13.066c0.653,0.63,1.466,1.008,2.245,1.008
			c1.591,0,2.725-1.088,2.725-2.462c0-0.698-0.229-1.443-0.813-2.05c-3.046-3.16-12.162-12.413-15.241-15.311
			c-1.661-1.557-3.401-2.027-5.657-1.522c-1.077,0.24-15.528,4.156-19.49,5.381c-0.299,0.092-0.493,0-0.642-0.503
			c0,0-5.245-19.983-6.458-24.037c-0.871-2.908-1.466-4.42-4.672-4.294c-3.665,0.138-21.999,3.103-21.999,3.103
			s-14.853-51.268-15.23-52.619c-0.218-0.768-0.836-1.283-1.593-1.317c-0.767-0.046-1.477,0.423-1.785,1.203
			c-0.32,0.79-16.422,49.63-18.266,54.68c-0.526-0.71-9.47-11.096-10.317-12.149c-1.821-2.256-4.592-3.401-8.073-3.115
			c-11.05,0.904-18.586,2.038-24.964,2.931c-6.378,0.893-8.863,2.107-11.36,5.474c-2.805,3.778-7.626,12.584-10.409,16.615
			c-1.786-1.076-4.133-1.832-7.077-1.832c-5.726,0-11.36,3.836-13.295,8.771c-1.752-1.007-4.146-1.729-7.077-1.729
			c-7.582,0-13.604,6.172-13.604,13.261c0,1.386,0.16,2.6,0.423,3.619c-5.702,1.534-9.722,7.054-9.722,13.021
			c0,3.195,1.443,5.52,4.454,5.52l0,0L17.738,127.999z"/>
  <path d="M94.417,207.827h-5.508c-2.394,0-3.447-0.401-3.447-1.787c0-0.732,0.527-1.454,1.191-2.062
			c0.997,0.265,2.119,0.401,3.252,0.401c7.364,0,12.082-4.455,12.082-11.749c0-2.256-0.997-4.455-2.394-6.367l2.187-0.264
			c0.802-0.068,1.329-0.526,1.329-1.397v-1.728c0-0.859-0.527-1.524-1.454-1.524h-7.638c-1.397,0-2.725-0.332-4.111-0.332
			c-7.1,0-11.955,4.181-11.955,11.624c0,4.386,1.867,7.694,4.775,9.63c-1.592,1.455-2.92,3.184-2.92,5.509
			c0,3.848,3.39,5.177,7.306,5.177h6.436c3.584,0,4.982,1.465,4.982,4.178c0,2.92-3.196,4.719-7.237,4.719
			c-3.127,0-6.573-0.595-7.112-4.111c-0.125-0.869-0.664-1.328-1.454-1.396l-3.321-0.137c-0.801,0-1.454,0.594-1.454,1.466
			c0.069,7.168,6.768,9.298,13.146,9.298c6.378,0,13.215-2.783,13.215-10.49c0-5.519-3.847-8.634-9.894-8.634l0,0V207.827z
			 M89.973,185.52c3.252,0,5.909,1.122,5.909,6.975c0,5.852-2.851,7.236-5.909,7.236s-5.84-1.065-5.84-7.236
			C84.133,186.321,86.79,185.52,89.973,185.52L89.973,185.52z"/>
  <path d="M63.429,180.938c-7.306,0-12.219,6.311-12.219,16.33c0,10.891,5.107,16.536,14.211,16.536
			c3.848,0,6.104-0.596,8.233-1.523c0.733-0.333,1.134-0.997,0.871-1.799l-0.733-2.118c-0.263-0.731-0.802-1.259-1.798-0.927
			c-1.923,0.527-3.721,1.134-6.241,1.134c-5.978,0-7.97-3.459-8.233-9.631h16.535c0.802,0,1.455-0.665,1.455-1.467
			c0-12.218-5.313-16.523-12.081-16.523l0,0V180.938z M57.52,194.349c0.665-6.905,3.653-8.555,6.104-8.555
			c4.123,0,5.577,4.317,5.714,8.555H57.52z"/>
  <path d="M46.332,197.807c-1.454-3.126-3.985-6.241-7.638-6.905c0.069,0,0.332-0.068,0.527-0.068
			c6.768-0.927,9.688-5.909,9.688-10.948c0-4.315-2.393-11.085-13.41-11.085H24.014c-0.802,0-1.523,0.664-1.523,1.455v41.764
			c0,0.802,0.732,1.466,1.523,1.466h3.195c0.79,0,1.454-0.664,1.454-1.466v-18.655h3.126c4.512,0,6.573,2.782,8.096,5.646
			c1.855,3.446,3.115,8.232,4.844,13.408c0.264,0.871,0.859,1.066,1.592,1.066h4.386c1.191,0,1.397-0.734,0.997-1.798
			c-2.324-6.437-4.581-12.22-5.382-13.88H46.332z M34.651,188.108h-5.978v-13.811h6.711c4.775,0,7.237,2.851,7.237,6.435
			c0,4.581-3.058,7.364-7.971,7.364V188.108z"/>
  <path d="M217.999,180.905c-3.526,0-6.31,1.327-9.104,4.58l-0.664-2.988c-0.205-0.859-0.663-1.191-1.591-1.191h-1.993
			c-0.802,0-1.522,0.595-1.522,1.396v29.281c0,0.791,0.733,1.455,1.522,1.455h3.058c0.791,0,1.466-0.664,1.466-1.455v-18.059
			c0-4.442,3.127-7.833,7.169-7.833c2.726,0,3.79,1.397,3.79,4.443v21.448c0,0.791,0.733,1.455,1.535,1.455h3.058
			c0.79,0,1.454-0.664,1.454-1.455v-22.776c0-4.982-3.195-8.302-8.165-8.302l0,0H217.999z"/>
  <path d="M199.632,210.048c-0.402-1.991-0.332-3.778-0.332-5.438v-11.555c0-5.382-0.871-12.149-11.43-12.149
			c-2.851,0-6.103,0.732-8.026,1.259c-0.802,0.195-1.123,0.87-0.928,1.729l0.526,2.451c0.206,0.871,0.87,1.329,1.729,1.065
			c1.787-0.459,3.78-1.123,6.367-1.123c4.718,0,5.772,1.798,5.772,5.646v1.591l-7.295,0.47c-5.382,0.401-9.962,3.184-9.962,10.295
			c0,5.967,3.252,9.493,8.554,9.493c3.652,0,7.101-1.328,9.161-4.58l0.457,2.92c0.127,0.928,0.734,1.328,1.523,1.328h3.058
			c0.871,0,1.329-0.596,1.191-1.455l-0.401-1.923l0,0L199.632,210.048z M193.322,202.811c0,2.451-2.716,6.115-6.964,6.115
			c-2.45,0-4.179-1.455-4.179-4.649c0-4.98,2.92-6.171,6.974-6.309l4.18-0.138v4.98H193.322z"/>
  <path d="M164.396,189.733c5.382-1.592,7.639-4.912,7.639-9.895c0-6.572-4.455-11.085-12.149-11.085h-12.884
			c-0.802,0-1.523,0.664-1.523,1.455v41.764c0,0.789,0.733,1.454,1.523,1.454h13.547c8.359,0,13.409-4.581,13.409-12.551
			c0-5.771-3.183-10.421-9.562-11.153l0,0V189.733z M151.65,174.068h7.03c4.718,0,7.043,2.394,7.043,6.642
			c0,4.249-2.53,6.71-7.5,6.71h-6.573v-13.341l0,0V174.068z M160.01,207.986h-8.359v-15.596h7.101c5.382,0,8.563,3.32,8.563,7.832
			C167.314,205.066,164.603,207.986,160.01,207.986L160.01,207.986L160.01,207.986z"/>
  <path d="M111.501,181.328h-2.988c-0.802,0-1.523,0.664-1.523,1.466v29.212c0,0.802,0.733,1.466,1.523,1.466h2.988
			c0.733,0,1.455-0.664,1.455-1.466v-29.212C112.956,181.992,112.223,181.328,111.501,181.328z"/>
  <path d="M252.8,211.708l-10.89-16.604l8.896-12.151c0.526-0.731,0.207-1.659-0.731-1.659h-4.249c-0.939,0-1.534,0.47-1.923,1.133
			l-8.028,12.288v-26.957c0-0.87-0.664-1.465-1.454-1.465h-2.989c-0.79,0-1.466,0.595-1.466,1.465v44.215
			c0,0.789,0.664,1.454,1.466,1.454h2.989c0.802,0,1.454-0.665,1.454-1.454V196.1l9.619,16.067c0.457,0.791,1.064,1.26,1.799,1.26
			h4.718c0.926,0,1.259-0.997,0.789-1.729l0,0V211.708z"/>
  <path d="M109.979,165.996c-2.324,0-4.111,1.854-4.111,4.11c0,2.256,1.798,4.18,4.111,4.18s4.054-1.867,4.054-4.18
			C114.033,167.793,112.234,165.996,109.979,165.996z"/>
  <path d="M128.919,180.938c-7.97,0-12.94,6.241-12.94,16.468s4.982,16.398,12.94,16.398c7.959,0,12.883-6.242,12.883-16.398
			C141.802,187.249,136.89,180.938,128.919,180.938L128.919,180.938z M128.781,208.754c-4.111,0-6.641-3.321-6.641-11.348
			c0-8.028,2.519-11.349,6.641-11.349c4.123,0,6.711,3.446,6.711,11.349C135.492,205.308,132.973,208.754,128.781,208.754z"/>
  <path d="M248.036,142.612c0.561,0.273,1.626,0.629,2.611,0.354c0.71-0.194,1.487-0.928,1.625-1.66
			c0.195-1.031,0-2.232-1.167-2.806c-4.215-2.085-37.32-19.524-101.998-19.524c-57.565,0-113.311,16.443-144.939,32.694H4.145
			c-2.61,1.442-2.794,4.019-1.855,5.794c0.71,1.351,2.107,2.37,3.779,2.37c0.653,0,1.34-0.148,2.039-0.505
			c17.44-9.033,74.113-34.158,141.63-34.158c62.628,0,87.947,12.367,98.312,17.441H248.036z"/>
</symbol>
<symbol id="client-snsbank" viewBox="994 484.5 256 256">
 <path opacity="0.6" d="M1122.75,583.502l33.336-18.519l53.151,43.336L1122.75,583.502z"/>
 <path opacity="0.1" d="M1122.75,583.502l33.336-18.519l-8.52-67.969L1122.75,583.502z"/>
 <path fill="none" d="M1122.75,583.502l18.52,33.337l-43.336,53.152L1122.75,583.502z"/>
 <path d="M1122.75,583.502l18.52,33.337l67.968-8.52L1122.75,583.502z"/>
 <path opacity="0.3" d="M1122.75,583.502l-33.336,18.521l-53.152-43.337L1122.75,583.502z"/>
 <path opacity="0.4" d="M1122.75,583.502l-33.336,18.521l8.52,67.969L1122.75,583.502z"/>
 <path opacity="0.6" d="M1122.75,583.502l-18.52-33.334l43.337-53.153L1122.75,583.502z"/>
 <path opacity="0" d="M1122.75,583.502l-18.52-33.334l-67.968,8.518L1122.75,583.502z"/>
 <path opacity="0.3" d="M1187.57,521.09c-11.111-11.48-24.817-19.63-40.003-24.075l8.52,67.969L1187.57,521.09z"/>
 <path opacity="0.6" d="M1156.087,564.983l31.298-44.079c10.926,11.298,18.705,25.373,22.594,40.744L1156.087,564.983z"/>
 <path opacity="0" d="M1156.087,564.983l53.893-3.335c3.704,14.816,3.704,30.743-0.741,46.485L1156.087,564.983z"/>
 <path opacity="0.4" d="M1060.338,518.867c-11.112,10.557-19.446,24.076-24.076,39.818l67.968-8.518L1060.338,518.867z"/>
 <path opacity="0.6" d="M1104.23,550.168l-43.892-31.301c11.297-10.926,25.372-18.704,40.744-22.595L1104.23,550.168z"/>
 <path d="M1104.23,550.168l-3.148-53.896c14.816-3.702,30.743-3.702,46.485,0.742L1104.23,550.168z"/>
 <path d="M1058.116,646.101c10.926,11.296,24.817,19.631,40.003,23.891l-8.52-67.969L1058.116,646.101z"/>
 <path opacity="0" d="M1089.414,602.022l-31.298,44.078c-10.885-11.432-18.664-25.457-22.594-40.744L1089.414,602.022z"/>
 <path opacity="0.6" d="M1089.414,602.022l-53.893,3.334c-3.704-14.815-3.704-30.744,0.741-46.485L1089.414,602.022z"/>
 <path opacity="0.3" d="M1185.348,648.322c11.297-10.927,19.631-24.816,23.89-40.003l-67.968,8.52L1185.348,648.322z"/>
 <path opacity="0.6" d="M1141.27,616.839l44.078,31.298c-11.297,10.927-25.373,18.705-40.744,22.596L1141.27,616.839z"/>
 <path opacity="0.1" d="M1141.27,616.839l3.334,53.894c-14.816,3.703-30.743,3.703-46.485-0.741L1141.27,616.839z"/>
 <path d="M1092.813,707.047c-0.991-0.232-6.117-1.63-6.292-1.688c-2.388-0.699-2.971-1.749-2.971-3.087v-1.341
	c0-1.105,0.642-1.98,1.457-2.271c0.641-0.234,1.34-0.293,2.563-0.293h10.893c0.291,0,0.524-0.232,0.524-0.522v-2.506
	c0-1.107-0.059-2.214-1.106-3.086c-0.583-0.467-1.631-0.876-3.088-1.166c-1.573-0.292-4.077-0.523-7.456-0.523
	c-5.417,0-8.446,1.106-10.543,3.495c-0.524,0.582-2.213,3.028-2.213,6.872v2.796c0.408,5.941,4.311,7.631,8.33,8.622
	c0.99,0.232,5.883,1.572,6.058,1.631c2.388,0.699,3.029,1.747,3.029,3.087v1.572c0,1.107-0.7,1.981-1.515,2.271
	c-0.641,0.233-1.515,0.292-2.738,0.292h-12.641c-0.291,0-0.524,0.232-0.524,0.524v1.281c0.058,2.155,0.35,3.729,1.747,4.777
	c1.107,0.814,3.263,1.862,10.194,1.862h0.758c3.961-0.115,6.524-0.698,8.271-1.455c1.514-0.698,2.388-1.456,3.086-2.271
	c0.932-0.992,2.331-3.438,2.505-6.641v-3.146C1100.851,710.192,1096.831,708.096,1092.813,707.047L1092.813,707.047z
	 M1136.325,691.087h-4.66c-1.689,0-2.097,0.407-2.097,2.096v18.699h-0.233c-1.106-1.572-10.485-15.028-12.582-18.058
	c-1.165-1.63-2.738-2.737-5.126-2.737h-3.262c-0.292,0-0.525,0.232-0.525,0.524v35.475c0,1.688,0.35,2.097,2.097,2.097h4.66
	c1.689,0,2.097-0.408,2.097-2.097v-18.757h0.233l12.874,18.407c1.165,1.456,2.796,2.388,4.776,2.388h3.204
	c0.292,0,0.525-0.233,0.525-0.524v-35.475C1138.422,691.494,1138.072,691.087,1136.325,691.087L1136.325,691.087z M1171.858,716.135
	c-0.408-5.942-4.427-8.039-8.388-9.029c-0.99-0.232-6.117-1.632-6.292-1.688c-2.388-0.699-2.971-1.749-2.971-3.088v-1.34
	c0-1.107,0.641-1.981,1.457-2.271c0.641-0.234,1.34-0.292,2.563-0.292h10.893c0.291,0,0.524-0.232,0.524-0.523v-2.505
	c0-1.106-0.059-2.215-1.107-3.087c-0.583-0.467-1.631-0.874-3.087-1.165c-1.573-0.292-4.078-0.525-7.456-0.525
	c-5.418,0-8.446,1.107-10.543,3.496c-0.523,0.582-2.213,3.028-2.213,6.873v2.795c0.408,5.942,4.369,7.631,8.33,8.623
	c0.99,0.232,5.883,1.572,6.058,1.63c2.388,0.698,3.03,1.748,3.03,3.088v1.572c0,1.107-0.7,1.98-1.515,2.271
	c-0.641,0.233-1.515,0.291-2.738,0.291h-12.64c-0.292,0-0.524,0.233-0.524,0.524v1.282c0.058,2.155,0.35,3.728,1.747,4.775
	c1.107,0.816,3.263,1.864,10.194,1.864h0.758c3.96-0.117,6.524-0.699,8.271-1.456c1.514-0.698,2.388-1.456,3.087-2.272
	c0.932-0.99,2.33-3.437,2.504-6.64C1171.858,718.813,1171.858,716.368,1171.858,716.135L1171.858,716.135z"/>
</symbol>
<symbol id="client-asnbank" viewBox="0 0 256 256"><g>
 <path d="M51.345,206.933c-5.604-1.645-7.554-3.105-7.554-5.604c0-1.156,0.548-2.375,1.584-3.289
		c0.914-0.792,2.619-1.827,5.543-1.827c2.132,0,4.142,0.548,6.03,1.523c0.305,0.182,0.427,0.304,0.488,0.487l0.304,5.115h3.777
		l0.183-9.928h-3.533v0.061c-1.584-0.729-4.081-1.521-7.249-1.521c-5.482,0-11.269,3.287-11.269,9.318
		c0,5.543,4.081,7.856,10.599,9.745c4.934,1.402,8.955,2.863,8.955,6.275c0,3.105-3.533,5.665-7.858,5.665
		c-2.375,0-4.569-0.61-6.457-1.768c-0.671-0.427-1.158-1.158-1.34-1.948l-0.73-3.533H39.04l0.671,10.843l3.471,0.061l0.244-1.341
		c1.827,0.976,4.507,1.949,7.858,1.949c6.761,0,12.06-4.323,12.06-9.928C63.344,210.648,57.497,208.822,51.345,206.933
		L51.345,206.933z M31.731,202.913c0-7.613-3.289-10.721-11.33-10.721c-4.446,0-7.553,0.853-9.441,1.584l-1.035,0.427v4.325
		l2.192-0.792c1.28-0.488,4.081-1.28,7.98-1.28c6.03,0,7.432,1.28,7.432,6.945v2.192l-10.112,0.913
		c-5.299,0.305-11.451,1.889-11.451,9.746c0,7.858,5.969,11.391,11.939,11.391c4.021,0,7.614-1.827,9.746-3.168
		c0.183,1.341,1.401,2.376,2.802,2.376l5.238-0.243v-3.594l-3.897-0.305L31.731,202.913z M27.528,218.021
		c0,0.913-0.427,1.705-1.097,2.253c-1.036,0.73-4.752,3.228-8.588,3.228c-3.594,0-7.737-1.889-7.737-7.188
		c0-3.716,2.01-5.238,7.676-5.726l9.746-0.853V218.021z M96.359,222.71v-20.04c0-3.777-0.731-6.151-2.315-7.858
		c-1.767-1.888-4.569-2.801-8.833-2.801c-4.873,0-8.223,1.34-10.355,2.679c-0.244-1.278-1.401-2.254-2.801-2.254l-5.056,0.244v3.412
		l3.715,0.243l-0.061,26.375l-3.899,0.305v3.654h12v-3.654l-3.899-0.305v-21.503c0-0.853,0.426-1.645,1.097-2.191
		c2.558-1.95,5.482-2.863,9.258-2.863c5.908,0,6.822,1.521,6.944,6.761v19.797l-3.899,0.305v3.654h12v-3.654L96.359,222.71z
		 M176.58,202.913c0-7.613-3.29-10.721-11.331-10.721c-4.447,0-7.552,0.853-9.441,1.584l-1.036,0.427v4.325l2.193-0.792
		c1.279-0.488,4.081-1.28,7.98-1.28c6.029,0,7.431,1.28,7.431,6.945v2.192l-10.112,0.913c-5.36,0.487-11.512,2.01-11.512,9.928
		c0,7.858,5.968,11.393,11.938,11.393c4.021,0,7.615-1.828,9.746-3.168c0.244,1.34,1.4,2.376,2.801,2.376l5.24-0.244v-3.595
		l-3.899-0.303V202.913z M172.377,218.021c0,0.913-0.426,1.705-1.097,2.253c-1.035,0.73-4.751,3.228-8.588,3.228
		c-3.594,0-7.735-1.889-7.735-7.188c0-3.716,2.01-5.238,7.675-5.726l9.746-0.853V218.021z M132.541,191.95
		c-3.533,0-6.396,0.669-8.651,2.009v-11.146c0-1.461-1.218-2.681-2.74-2.681l-4.873,0.244v3.352l3.594,0.242v42.639h3.592
		l0.184-1.584c2.315,1.523,5.299,2.253,8.954,2.253c9.686,0,15.228-6.457,15.228-17.725
		C147.768,198.04,142.468,191.95,132.541,191.95z M132.541,223.196c-3.473,0-6.031-0.792-7.796-2.376
		c-0.549-0.486-0.854-1.278-0.854-2.07v-18.335c0-0.853,0.305-1.583,0.854-2.07c1.766-1.523,4.324-2.315,7.796-2.315
		c7.491,0,11.146,4.447,11.146,13.523C143.687,214.669,142.226,223.196,132.541,223.196L132.541,223.196z M249.368,223.257
		c-1.948,0-2.13,0-5.726-4.202l-9.257-10.843l11.269-10.599c1.035-0.974,1.035-0.974,3.714-1.278l1.523-0.183v-3.594h-12.789v3.594
		l2.922,0.243l-10.11,9.563h-2.497v-23.146c0-1.521-1.341-2.741-2.865-2.741l-5.237,0.242v3.414l3.896,0.303v38.68l-3.896,0.305
		v3.654h11.997v-3.654l-3.896-0.305v-12.609h2.13c0.061,0,0.061,0,0.121,0.061l9.686,11.451c3.35,4.021,4.998,5.604,7.677,5.604
		c1.095,0,1.826-0.182,2.315-0.487l0.667-0.486v-2.924h-1.645V223.257z M213.737,202.67c0-3.777-0.731-6.151-2.315-7.858
		c-1.769-1.888-4.569-2.801-8.833-2.801c-4.873,0-8.223,1.34-10.356,2.679c-0.243-1.278-1.402-2.254-2.8-2.254l-5.058,0.244v3.412
		l3.717,0.243l-0.061,26.375l-3.899,0.305v3.654h12.061v-3.654l-3.899-0.305v-21.503c0-0.853,0.428-1.645,1.098-2.191
		c2.558-1.95,5.48-2.863,9.257-2.863c5.908,0,6.821,1.521,6.942,6.761v19.797l-3.896,0.305v3.654h11.998v-3.654l-3.896-0.305
		L213.737,202.67z"/>
 <g>
  <path d="M85.197,105.339c0.98-4.579,2.615-8.992,4.742-13.08c1.308-2.452,2.288-4.905,2.778-7.685
			c0.327-1.145,0.492-2.452,0.492-3.598c0-11.117-8.993-20.109-20.111-20.109c-8.338,0-15.532,5.067-18.475,12.425
			c-0.98-3.597-1.47-7.357-1.308-11.28c0.163-24.688,20.11-44.471,44.799-44.471c24.033,0,43.652,18.965,44.797,42.672
			c0.49,10.137-3.105,19.456-8.502,27.959c-7.193,10.952-15.205,21.254-15.205,34.987c0,19.946,13.08,36.786,30.901,42.509
			c-4.742,1.308-9.81,2.125-15.042,1.962c-27.304-0.327-49.704-22.234-50.847-49.539C84.053,113.677,84.38,109.426,85.197,105.339"
  />
  <path d="M163.676,82.449c0-2.452-1.962-4.415-4.415-4.415c-2.453,0-4.415,1.963-4.415,4.415
			s1.962,4.413,4.415,4.413C161.713,86.699,163.676,84.737,163.676,82.449 M176.593,134.113
			c-0.327-7.685,4.087-14.388,10.627-17.494v-0.163c-1.8-0.327-3.762-0.49-5.723-0.49c-16.35,0-29.757,13.243-29.757,29.755
			c0,6.377,1.962,12.427,5.558,17.168c9.157-4.251,17.004-11.118,22.236-19.783C177.736,140.49,176.755,137.384,176.593,134.113
			 M182.805,63.646c1.145-2.943,1.798-6.214,1.798-9.483c0-4.905-1.308-9.318-3.597-13.243c-0.817,6.213-3.27,11.772-6.866,16.35
			l-0.165,0.328c-1.635-0.818-3.27-1.636-5.067-2.453c-1.308-0.654-2.617-1.472-3.597-2.125c-4.578-2.617-8.012-7.031-9.483-12.262
			c-0.817,2.777-1.308,5.885-1.308,8.992c0,10.3,5.068,19.619,12.752,25.178h0.163c1.635,1.308,3.107,2.452,4.578,3.924
			c5.722,5.559,10.137,12.59,12.754,20.272c2.778-3.596,4.578-8.01,5.23-12.588c0.165-1.472,0.328-2.944,0.328-4.579
			C190.326,74.109,188.038,68.388,182.805,63.646"/>
 </g>
</g>

</symbol>
 <symbol id="client-blgwonen" viewBox="-128 128 256 256">
   <circle cx="0.409" cy="236.652" r="25.182"/>
   <path d="M-84.766,348.151c1.632-0.531,3.114-2.089,3.114-4.823c0-4.48-2.961-6.266-9.076-6.266h-8.507
				c-0.684,0-0.949,0.305-0.949,0.987v21.646c0,0.684,0.304,0.986,0.949,0.986h8.81c5.963,0,9.494-1.975,9.494-6.91
				C-80.969,350.354-82.716,348.721-84.766,348.151z M-94.563,341.468h3.722c2.734,0,3.683,0.721,3.683,2.506
				c0,1.823-0.987,2.619-3.645,2.619h-3.722v-5.125H-94.563L-94.563,341.468z M-90.728,356.277h-3.835v-5.658h3.873
				c3.038,0,4.063,0.835,4.063,2.809C-86.627,355.518-87.652,356.277-90.728,356.277L-90.728,356.277z M-62.362,355.556h-8.316
				V338.05c0-0.684-0.341-0.987-0.987-0.987h-3.798c-0.684,0-0.949,0.305-0.949,0.987v21.646c0,0.684,0.303,0.986,0.949,0.986
				h13.101c0.684,0,0.95-0.304,0.95-0.986v-3.189C-61.375,355.859-61.679,355.556-62.362,355.556z M-39.351,346.442h-7.062
				c-0.684,0-0.988,0.342-0.988,0.987v2.353c0,0.646,0.304,0.949,0.988,0.949h2.886v4.86c-0.646,0.268-1.709,0.494-2.81,0.494
				c-4.329,0-6.418-1.976-6.418-7.178c0-5.164,2.013-7.177,6.873-7.177c1.937,0,3.455,0.494,4.329,0.873
				c0.722,0.266,1.14,0.152,1.367-0.455l0.949-2.432c0.228-0.607,0.038-0.91-0.531-1.252c-1.367-0.873-3.759-1.71-7.024-1.71
				c-7.405,0-11.848,3.646-11.848,12.19c0,8.583,4.367,12.15,11.506,12.15c3.721,0,6.266-0.721,7.898-1.708
				c0.419-0.229,0.76-0.569,0.76-1.216v-10.707C-38.401,346.746-38.742,346.442-39.351,346.442L-39.351,346.442z M-1.718,337.48
				h-1.67c-0.38,0-0.494,0.229-0.57,0.533l-4.671,15.568l-1.101,4.329h-0.076l-1.215-4.329l-5.051-15.568
				c-0.075-0.305-0.227-0.533-0.646-0.533h-1.67c-0.379,0-0.494,0.229-0.57,0.533l-5.012,15.568l-1.215,4.329h-0.076l-1.102-4.329
				l-4.709-15.568c-0.076-0.305-0.227-0.533-0.569-0.533h-1.671c-0.418,0-0.531,0.267-0.456,0.646l6.873,22.063
				c0.076,0.304,0.267,0.493,0.646,0.493h1.899c0.38,0,0.569-0.189,0.684-0.493l4.823-14.732l1.329-4.711h0.076l1.367,4.711
				l4.823,14.732c0.075,0.304,0.303,0.493,0.684,0.493h1.898c0.379,0,0.569-0.189,0.684-0.493l6.798-22.063
				C-1.149,337.747-1.301,337.48-1.718,337.48L-1.718,337.48z M13.243,336.91c-6.685,0-10.708,4.328-10.708,12.114
				c0,7.746,4.025,12.074,10.708,12.074c6.683,0,10.746-4.328,10.746-12.074C24.027,341.278,19.964,336.91,13.243,336.91
				L13.243,336.91z M13.243,358.783c-5.165,0-8.014-3.305-8.014-9.721c0-6.417,2.849-9.761,8.014-9.761
				c5.164,0,8.049,3.344,8.049,9.761C21.292,355.479,18.407,358.783,13.243,358.783z M41.04,336.91c-5.05,0-7.329,2.582-8.278,4.596
				l-0.038-3.532c0-0.379-0.189-0.53-0.532-0.53h-1.519c-0.38,0-0.495,0.188-0.495,0.57v22.061c0,0.382,0.153,0.533,0.495,0.533
				h1.593c0.381,0,0.533-0.189,0.533-0.533v-13.556c0-4.216,3.076-7.139,7.671-7.139c4.443,0,6.189,2.315,6.189,6.113v14.62
				c0,0.379,0.19,0.531,0.531,0.531h1.519c0.417,0,0.532-0.189,0.532-0.531v-14.925C49.279,340.177,46.622,336.91,41.04,336.91z
				 M65.646,336.91c-6.494,0-10.404,4.444-10.404,12.152c0,7.519,4.175,12.113,11.392,12.113c2.848,0,5.391-0.721,7.177-1.673
				c0.303-0.151,0.457-0.303,0.379-0.646l-0.455-1.176c-0.152-0.305-0.379-0.532-0.759-0.305c-1.71,0.948-3.532,1.48-6.19,1.48
				c-5.468,0-8.696-3.38-8.885-8.619h17.088c0.417,0,0.569-0.152,0.569-0.532v-1.861C75.556,341.543,72.139,336.91,65.646,336.91z
				 M72.976,348.037H57.862c0.227-5.772,2.885-8.81,7.784-8.81c5.012,0,7.329,3.53,7.329,8.469V348.037L72.976,348.037z
				 M92.531,336.91c-5.05,0-7.329,2.582-8.278,4.596l-0.038-3.532c0-0.379-0.189-0.53-0.53-0.53h-1.52
				c-0.379,0-0.494,0.188-0.494,0.57v22.061c0,0.382,0.151,0.533,0.494,0.533h1.596c0.379,0,0.53-0.189,0.53-0.533v-13.556
				c0-4.216,3.078-7.139,7.672-7.139c4.442,0,6.188,2.315,6.188,6.113v14.62c0,0.379,0.19,0.531,0.533,0.531h1.519
				c0.417,0,0.531-0.189,0.531-0.531v-14.925C100.772,340.177,98.113,336.91,92.531,336.91z"/>
   <path d="M0.409,275.14c-13.145,9.898-23.045,23.758-24.55,25.975v17.343c7.762,2.298,15.997,3.644,24.55,3.644
				c8.553,0,16.79-1.267,24.55-3.644v-17.263C22.898,298.186,13.396,284.88,0.409,275.14L0.409,275.14z"/>
   <path d="M27.651,263.895c-2.296,16.313,0.475,33.104,1.03,35.796l12.273,12.273
				c7.128-3.879,13.858-8.789,19.958-14.809c6.018-6.018,11.007-12.751,14.808-19.957l-12.353-12.354
				C59.804,264.211,43.729,261.599,27.651,263.895L27.651,263.895z"/>
   <path d="M64.872,212.022c-3.009,2.06-16.234,11.563-25.975,24.55c9.899,13.146,23.759,23.045,25.975,24.55h17.343
				c2.296-7.76,3.643-15.997,3.643-24.55c0-8.552-1.267-16.789-3.643-24.55H64.872L64.872,212.022z"/>
   <path d="M63.368,208.381l12.275-12.276c-3.881-7.127-8.792-13.858-14.81-19.956
				c-6.019-6.02-12.75-11.008-19.956-14.81l-12.276,12.274c-0.633,3.564-3.325,19.72-1.029,35.796
				C43.887,211.706,60.675,208.855,63.368,208.381z"/>
   <path d="M0.409,198.086c13.145-9.899,23.045-23.759,24.55-25.976v-17.344c-7.76-2.296-15.997-3.641-24.55-3.641
				c-8.554,0-16.789,1.267-24.55,3.641v17.345C-22.161,175.12-12.578,188.344,0.409,198.086z"/>
   <path d="M-26.833,209.409c2.296-16.313-0.476-33.103-1.03-35.796l-12.273-12.272
				c-7.128,3.879-13.858,8.789-19.958,14.809c-6.019,6.019-11.008,12.749-14.809,19.957l12.274,12.274
				C-59.064,209.093-42.911,211.706-26.833,209.409z"/>
   <path d="M-38.157,236.651c-9.9-13.146-23.758-23.044-25.977-24.549h-17.343c-2.296,7.76-3.642,15.996-3.642,24.549
				c0,8.554,1.268,16.791,3.642,24.551h17.343C-61.125,259.142-47.899,249.639-38.157,236.651z"/>
   <path d="M-62.629,264.844l-12.274,12.276c3.879,7.127,8.79,13.86,14.809,19.956
				c6.019,6.018,12.75,11.009,19.958,14.809l12.273-12.274c0.634-3.564,3.326-19.719,1.03-35.795
				C-43.146,261.519-59.936,264.369-62.629,264.844L-62.629,264.844z"/>
</symbol>
</defs>
</svg>
