<svg id="prize-symbol-defs" aria-hidden="true" style="position: absolute; width: 0; height: 0; overflow: hidden;" version="1.1" xmlns="http://www.w3.org/2000/svg" xmlns:xlink="http://www.w3.org/1999/xlink">
<defs>
<symbol id="prize-fwa" viewBox="0 0 256 256">
 <path id="fwa_1_" d="M213.7,102.7c0.9,0,1.8,0.2,2.5,0.6c1.6,0.9,2.8,2.6,2.8,4.6l0,0v15h14.5c2.9,0,5.3,2.4,5.3,5.3 c0,2.9-2.4,5.3-5.3,5.3H219v14.2c0,2.9-2.4,5.3-5.3,5.3c-0.6,0-40.4,0-40.4,0c-2.9,0-5.3-2.4-5.3-5.3V128l0,0c0.1-2.8,2.4-5,5.3-5 h35.2v-9.7h-40.6L148.6,149c-0.3,1.6-1.3,3-2.9,3.8c-0.7,0.4-1.5,0.5-2.3,0.5c-1.8,0-3.6-1-4.6-2.6c-0.2-0.3-0.4-0.6-0.5-0.9 l-15.2-29.9L107.7,149c-0.7,1.6-1.6,2.9-3.2,3.7c-0.7,0.4-1.5,0.5-2.3,0.5c-1.8,0-3.6-1-4.6-2.6c-0.2-0.3-0.4-0.6-0.5-0.9 l-18.6-36.5h-31v9.7h25.1c2.9,0,5.3,2.4,5.3,5.3c0,2.9-2.4,5.3-5.3,5.3h-25V148c0,2.9-2.4,5.3-5.3,5.3c-2.9,0-5.3-2.4-5.3-5.3v-14.5 H22.5c-2.9,0-5.3-2.4-5.3-5.3c0-2.9,2.4-5.3,5.3-5.3H37v-15l0,0c0-2,1.1-3.7,2.8-4.6c0.7-0.4,1.6-0.6,2.5-0.6h39.4 c0.9,0,1.7,0.2,2.4,0.6c1.1,0.5,2,1.4,2.6,2.5l15.6,30.6l15.6-29.2c0.8-1.6,1.2-3,2.9-3.8c0.7-0.4,1.5-0.5,2.3-0.5 c1.3,0,2.6,0.5,3.6,1.4c1,0.8,1.4,1.3,2.1,2.5l14.7,29.6l16.5-30.6c0.4-0.8,1-1.4,1.7-1.8c0.9-0.8,2.1-1.2,3.4-1.2L213.7,102.7  M178.3,142.5h30.1v-8.9h-30.1V142.5 M213.7,91.9H165c-3.5,0-7,1.2-9.8,3.3c-1.9,1.4-3.5,3.1-4.7,5.2l-0.1,0.1l-0.1,0.1l-6.7,12.5 c0,0-7.8-15.3-10.1-17.2c-2.9-2.5-6.6-3.9-10.5-3.9c-2.4,0-4.8,0.5-7,1.6c-4.2,2-6.5,5.7-8.5,10.1l-5.1,9.4L96.3,101 c-1.6-3.3-4.3-5.9-7.6-7.5c-2.2-1.1-4.6-1.6-7-1.6H42.3c-2.7,0-5.3,0.7-7.7,1.9c-5.2,2.8-8.4,8.2-8.4,14.1v4.2h-3.7 c-8.9,0-16.1,7.2-16.1,16.1s7.2,16.1,16.1,16.1h3.7v3.7c0,8.9,7.2,16.1,16.1,16.1s16.1-7.2,16.1-16.1v-3.7h14.3c3.1,0,6-0.9,8.4-2.4 l6.3,12.4c0.3,0.7,0.7,1.4,1.1,2c2.9,4.8,8.1,7.7,13.7,7.7c2.4,0,4.8-0.5,7-1.6c3.9-1.9,7.3-5.1,9.1-9.1l4.6-10.2l5.7,11.2 c0.3,0.7,0.7,1.4,1.1,2c2.9,4.8,8.1,7.7,13.7,7.7c2.4,0,4.8-0.5,7-1.6c3.7-1.8,6.5-4.9,8-8.7c2.4,5.9,8.2,10,14.9,10h40.4 c8.9,0,16.1-6.9,16.1-15.8v-3.7h3.7c8.9,0,16.1-7.2,16.1-16.1s-7.2-16.1-16.1-16.1h-3.7v-4c0-5.9-3.2-11.3-8.4-14.1 C219,92.6,216.3,91.9,213.7,91.9L213.7,91.9z"></path>
</symbol>
<symbol id="prize-adcn" viewBox="0 0 256 256">
 <path d="M138.5,146.2c-3.6,9.2-13.3,11.8-22.3,11.7c-5-0.1-9.2-1.7-14.2-1.1c-4.7,0.6-12,1.9-14.9-3.1c-1.8,9.4-9.6,6.4-16.9,4.5 c0.4,0.9,3.7,6.3,2.3,6.9c-3.4,1.6-3,0.7-4.7-2.8c-2.1-4.4-2.4-5.5-7.3-6.6c-4.7-1.1-9.3-2.3-14.1-3c-5.7-0.8-9.2,10.7-12.5,14.1 c-5.3,5.6-15.6,3.8-16-4.5c-0.8-15.2,3.5-31.7,6-46.6c1.1-6.9,1.3-15.4,4.1-21.8c1.2-2.7,3.7-4.4,6.7-3.9c4,0.6,5.6,4.6,7.1,7.8 c7.2,15.5,14.5,31,21.7,46.5c1.2,2.7,2.5,7.8,4.6,9.8c1.8,1.7,7.3,2.1,9.7,2.8c2.6,0.7,5.7,1.2,5.8-2.4c0-4.3-0.8-8.8-1.2-13.2 c-0.8-7.7-1.6-15.5-2.3-23.2c-0.7-7.1-2.9-15.5-2-22.7c0.9-7.1,8.5-9.2,14.6-9.6c8.6-0.5,15.2,4.1,21.3,9.6 c17.7,16.3,15,43.7-3,58.6c6.7,1.2,13,1.2,19-2.5c6.9-4.3,5-10,4.7-17.1c-0.4-7.5,0-14.9,1.4-22.3c1.5-7.7,5.7-14.3,11.5-19.6 c5.1-4.7,11.4-7.5,18.3-6.8c5.4,0.6,15.8,4.5,15.2,11.5c-0.2,3-2.8,5.4-5.6,6c-3.9,0.7-5.9-2.5-7.2-5.5c-1.2-2.6-2.3-6.8-4.9-8.4 c-2.8-1.8-7.7,1.6-10,3.1c-12.6,7.7-17,24.5-15.5,38.6c0.7,6.4,2.7,15.9,8.1,20.1c2.9,2.2,6.5,3.5,9.8,5c3.8,1.7,8.8-3.7,12.3-4.8 c3.2-1.1,7.2-0.8,9.8,1.4c2.3,1.9,4.2,5.7,7.7,5c7-1.4,6.3-14.1,6.9-19.4c1-7.9,1.7-15.9,2.7-23.9c0.7-5.9-0.3-17,4.3-21.5 c1.9-1.9,5.4-2.1,7.7-0.7c2.8,1.7,3.2,5.7,3.9,8.6c1.9,8.1,3.6,16.3,5.3,24.5c1.8,8.1,3.5,16.2,5.3,24.3c0.7,3.1,1.1,7.1,2.8,9.9 c2.5,4.3,6.3,1.5,7.1-2.1c3.2-15.1,2.7-31.7,3.3-47c0.1-3.8-0.1-7.8,0.4-11.6c0.5-3.5,3-0.9,3,1.5c0,7.8-0.4,15.6-0.8,23.4 c-0.4,7.5-0.7,15.1-1.3,22.6c-0.5,5.8,0.8,18.1-7.2,18.6c-8.1,0.6-8.4-8.2-9.8-14.1c-1.9-8.4-3.7-16.7-5.5-25.1 c-1.7-7.7-3.3-15.3-5.1-23c-0.6-2.5-1-7.4-3.9-8.5c-3.9-1.5-4.9,4.9-5.2,7.3c-1.9,15.5-3.3,31-4.7,46.5c-0.5,5.2-2,11.8-8.1,12.6 c-2.9,0.4-6.2-0.4-8.3-2.5c-2.3-2.2-4.1-5.5-7.9-4.1c-3.1,1.2-5.9,3.2-8.9,4.5c-3.1,1.4-6.8,0.3-9.8-0.8 C145.9,156,140.3,152.3,138.5,146.2C136.4,151.7,139.7,150.1,138.5,146.2z M86.6,148.9c4.1-7.8,10.4-5,15.1,0.4 c2.1,2.3,3.5,4.6,6.7,2.8c3.3-2,6-4.5,8.1-7.7c4.7-7.2,7.1-15.2,6.3-23.7c-0.9-9.4-3.3-15.5-10.4-22c-5.8-5.4-11.6-9.4-20-9 c-9.7,0.4-11.8,4.7-11.1,13.7C82.6,118.5,84.6,133.7,86.6,148.9C86.7,148.7,86.3,146.4,86.6,148.9z M63.3,153 c-7.2-16.2-14.9-32.3-22.3-48.4c-1.3-2.9-2.6-5.8-4-8.6c-1.1-2.2-5.3-4.6-6.2-0.5c-1.7,8.4-2.9,16.9-4.2,25.4 c-1.2,7.9-2.1,15.8-3.1,23.7C23,149,19,165.9,25,167.1c7.8,1.6,10.8-9.5,14.2-14.1C44.5,145.7,56.4,151.2,63.3,153 C63,152.5,61.4,152.5,63.3,153z M101.4,154.2c0-1.1-3.2-4.1-3.9-4.9c-1.6-2-3.8-3.8-6.3-1.8c-1.7,1.4-2.1,4-0.4,5.5 C93.6,155.5,98.1,154.4,101.4,154.2C101.4,154.1,99.3,154.3,101.4,154.2z M167.8,89.5c1.2,2.2,4.2,13.6,8.5,10.4 C181.7,95.8,170.4,90.4,167.8,89.5C168,89.9,170.8,90.6,167.8,89.5z"></path>
</symbol>
<symbol id="prize-webby" viewBox="0 0 256 256">
 <path d="M32.6,133.3v8.5C98.1,137.9,49.4,135.9,32.6,133.3z"></path>
 <path d="M32.6,147.3v8.3l0.5,0.1C83.1,151.2,68.8,149.5,32.6,147.3z"></path>
 <path d="M32.6,73.7V101c41.1-1.4,41.3-3.7,20-6.5l3.8-4.7c26.3,4,24.6,10.6,5.7,14c6.3,2.2,28.8,6.3,1.6,14.5 c4.4,1.2,29.3,7.4-1.6,12.9c4.9,2.2,30.9,5.4,1.1,13.4c7.7,1.3,27.6,5.5,1.4,14c9.9,1,11,1.4,13.7,6v17.8h12V73.7H32.6z"></path>
 <path d="M32.6,120.5v8.5C44.9,126.5,101.2,125.6,32.6,120.5z"></path>
 <path d="M32.6,106v9C71.1,112.9,84.1,110.2,32.6,106z"></path>
 <path d="M104.5,102.6h-6.6v-1.3h14.5v1.3h-6.6v17.6h-1.4L104.5,102.6L104.5,102.6z"></path>
 <path d="M116,101.4h1.4v8.7h12.1v-8.7h1.4v18.8h-1.4v-8.8h-12.1v8.8H116V101.4z"></path>
 <path d="M135.8,101.4h13.4v1.3h-12v7.4H148v1.3h-10.8v7.6h12.1v1.3h-13.5V101.4z"></path>
 <path d="M98.9,131h6.3l3.7,12.4L113,131h5.1l4.1,12.4l3.7-12.4h6.1l-7.1,21.5h-5.2l-4.3-12.3l-4.3,12.3h-5.2L98.9,131z"></path>
 <path d="M132.1,141.5L132.1,141.5c0-6.5,4.6-11.6,11.1-11.6c7.6,0,11.1,5.6,11.1,12c0,0.5,0,1.1,0,1.6h-14.7 c0.6,2.4,2.4,3.6,4.8,3.6c1.9,0,3.3-0.7,4.9-2.2l4.3,3.5c-2.1,2.7-5.2,4.5-9.5,4.5C137,153,132.1,148.3,132.1,141.5z M147,139.6 c-0.3-2.4-1.7-4-3.9-4c-2,0-3.4,1.5-3.8,4H147z"></path>
 <path d="M158.4,131h11c2.7,0,4.6,0.7,5.8,1.9c0.9,0.9,1.4,2,1.4,3.5v0.1c0,2.5-1.4,3.9-3.3,4.8c2.6,0.9,4.2,2.3,4.2,5.2v0.1 c0,3.7-3,5.9-8.1,5.9h-11L158.4,131L158.4,131z M170.8,137.6c0-1.2-0.9-1.8-2.7-1.8h-3.9v3.8h3.7 C169.7,139.6,170.8,138.9,170.8,137.6L170.8,137.6z M168.7,143.7h-4.5v3.9h4.6c1.8,0,2.8-0.7,2.8-2v-0.1 C171.6,144.5,170.7,143.7,168.7,143.7z"></path>
 <path d="M182.1,131h11c2.7,0,4.6,0.7,5.8,1.9c0.9,0.9,1.4,2,1.4,3.5v0.1c0,2.5-1.4,3.9-3.3,4.8c2.6,0.9,4.2,2.3,4.2,5.2v0.1 c0,3.7-3,5.9-8.1,5.9h-11L182.1,131L182.1,131z M194.4,137.6c0-1.2-0.9-1.8-2.7-1.8h-3.9v3.8h3.7 C193.4,139.6,194.4,138.9,194.4,137.6L194.4,137.6z M192.4,143.7h-4.5v3.9h4.6c1.8,0,2.8-0.7,2.8-2v-0.1 C195.3,144.5,194.4,143.7,192.4,143.7z"></path>
 <path d="M209.3,144.4l-8.1-13.4h6.7l4.4,7.8l4.4-7.8h6.6l-8.1,13.3v8.1h-5.9L209.3,144.4L209.3,144.4z"></path>
 <path d="M108.6,161.5h1.3l8.8,19h-1.5l-2.4-5.3h-11.1l-2.4,5.3h-1.5L108.6,161.5z M114.2,174l-5-10.9l-5,10.9H114.2z"></path>
 <path d="M118.6,161.7h1.6l5.9,16.8l5.5-16.8h1.1l5.5,16.8l5.9-16.8h1.5l-6.8,19h-1.1l-5.5-16.4l-5.5,16.4h-1.1L118.6,161.7z"></path>
 <path d="M154.7,161.5h1.3l8.8,19h-1.5l-2.4-5.3h-11.1l-2.4,5.3h-1.5L154.7,161.5z M160.3,174l-5-10.9l-5,10.9H160.3z"></path>
 <path d="M168.1,161.7h7.9c2.3,0,4.2,0.7,5.3,1.9c0.9,0.9,1.4,2.2,1.4,3.5v0.1c0,3.2-2.3,5-5.5,5.4l6.2,8.1h-1.8l-6-7.8h-6.2v7.8 H168v-19H168.1z M175.8,171.4c3.2,0,5.5-1.6,5.5-4.3V167c0-2.5-2-4.1-5.4-4.1h-6.4v8.5L175.8,171.4L175.8,171.4z"></path>
 <path d="M186.9,161.7h6.3c5.9,0,10,4.1,10,9.4v0.1c0,5.3-4.1,9.4-10,9.4h-6.3V161.7z M188.3,163v16.3h4.9c5.3,0,8.6-3.6,8.6-8.1 v-0.1c0-4.5-3.3-8.1-8.6-8.1L188.3,163L188.3,163z"></path>
 <path d="M205.8,177.8l0.9-1.1c2.1,1.9,4,2.8,6.8,2.8s4.8-1.6,4.8-3.7v-0.1c0-2-1-3.2-5.3-4c-4.5-0.9-6.4-2.5-6.4-5.3v-0.1 c0-2.8,2.6-5,6.1-5c2.7,0,4.6,0.8,6.5,2.3l-0.9,1.1c-1.8-1.5-3.6-2.1-5.6-2.1c-2.8,0-4.6,1.6-4.6,3.6v0.1c0,2,1,3.2,5.5,4.1 c4.4,0.9,6.2,2.5,6.2,5.2v0.1c0,3-2.6,5.1-6.2,5.1C210.3,180.8,208,179.8,205.8,177.8z"></path>
</symbol>
</defs>
</svg>
