<svg xmlns="http://www.w3.org/2000/svg" 
xmlns:xlink="http://www.w3.org/1999/xlink" x="0px" y="0px" width="220px" 
height="30px" viewBox="0 0 220 30" xml:space="preserve"><path 
d="m220,12l-6,10l-7,-18c-9,2 -11,15 -14,21c-2,-0 -10,-13 -9,-19l0,0c-9,2 
-13,16 -15,20l-10,-14c-4,-16 -11,10 -12,13l-10,-21c-10,3 -12,24 
-16,17l-7,-18c-3,-2 -9,14 -11,18c-0,-10 -4,-13 -5,-15c-7,6 -13,11 
-16,20l-5,-18l-10,15l0,0c-1,-5 -1,-12 -5,-13l-10,15c-2,-8 -1,-16 
-2,-18c-3,3 -6,3 -8,13c-2,10 -6,-17 -12,5c-2,-12 -17,-24 
-18,1l-4,-15l-6,3" fill="none" stroke="gray"/></svg>
